<svg class="logo" width="60.6" height="16.8" viewBox="0 0 64.6 16.8" xmlns="http://www.w3.org/2000/svg"><g id="svgGroup" stroke-linecap="round" fill-rule="evenodd" font-size="9pt" stroke="#000" stroke-width="0.25mm" fill="black" style="stroke:#000;stroke-width:0.25mm;fill:black"><path d="M 0.05 16.525 L 0 16.45 A 0.472 0.472 0 0 1 0.025 16.301 L 0.175 16.075 A 0.48 0.48 0 0 0 0.214 16.031 Q 0.233 16.007 0.246 15.982 A 0.286 0.286 0 0 0 0.25 15.975 L 0.3 15.875 L 0.475 15.7 A 0.081 0.081 0 0 0 0.53 15.677 Q 0.559 15.651 0.583 15.596 A 0.565 0.565 0 0 0 0.6 15.55 A 1.065 1.065 0 0 1 0.625 15.492 Q 0.654 15.431 0.682 15.395 A 0.23 0.23 0 0 1 0.7 15.375 A 0.251 0.251 0 0 0 0.77 15.238 A 0.358 0.358 0 0 0 0.775 15.175 L 0.875 15 A 0.202 0.202 0 0 1 0.875 14.998 Q 0.876 14.9 0.975 14.85 Q 0.975 14.807 1.013 14.688 A 2.744 2.744 0 0 1 1.025 14.65 L 1.1 14.4 A 1.068 1.068 0 0 0 1.165 14.242 Q 1.2 14.129 1.2 14.025 Q 1.2 13.825 1.275 13.65 L 1.325 13.6 Q 1.325 13.575 1.375 13.525 A 0.333 0.333 0 0 0 1.389 13.492 Q 1.401 13.459 1.414 13.41 A 1.629 1.629 0 0 0 1.425 13.363 A 2.541 2.541 0 0 0 1.442 13.278 Q 1.45 13.234 1.459 13.183 A 5.917 5.917 0 0 0 1.475 13.075 A 2.908 2.908 0 0 0 1.503 12.972 Q 1.528 12.868 1.537 12.793 A 0.862 0.862 0 0 0 1.538 12.788 Q 1.548 12.695 1.567 12.661 A 0.053 0.053 0 0 1 1.575 12.65 A 2.06 2.06 0 0 0 1.599 12.541 A 1.634 1.634 0 0 0 1.612 12.463 A 1.285 1.285 0 0 0 1.623 12.368 A 1.004 1.004 0 0 0 1.625 12.3 A 0.384 0.384 0 0 0 1.68 12.171 A 0.471 0.471 0 0 0 1.687 12.125 A 1.123 1.123 0 0 1 1.701 12.042 Q 1.709 12 1.721 11.963 A 0.653 0.653 0 0 1 1.725 11.95 A 0.472 0.472 0 0 1 1.75 11.801 Q 1.773 11.73 1.775 11.637 A 0.782 0.782 0 0 0 1.775 11.625 A 0.476 0.476 0 0 0 1.822 11.457 A 0.584 0.584 0 0 0 1.825 11.4 Q 1.825 11.275 1.85 11.15 A 3.313 3.313 0 0 1 1.902 10.868 Q 1.934 10.731 1.976 10.614 A 1.828 1.828 0 0 1 2 10.55 A 1.402 1.402 0 0 1 2.022 10.455 Q 2.04 10.389 2.063 10.338 Q 2.1 10.25 2.1 10.15 A 0.607 0.607 0 0 0 2.128 10.086 Q 2.15 10.025 2.15 9.975 L 2.15 9.875 A 0.439 0.439 0 0 0 2.169 9.855 Q 2.196 9.824 2.2 9.805 A 0.029 0.029 0 0 0 2.2 9.8 A 0.253 0.253 0 0 0 2.22 9.778 Q 2.262 9.724 2.233 9.685 A 0.082 0.082 0 0 0 2.225 9.675 Q 2.225 9.625 2.2 9.6 Q 2.181 9.562 2.191 9.538 A 0.042 0.042 0 0 1 2.2 9.525 A 3.39 3.39 0 0 0 2.244 9.356 A 2.589 2.589 0 0 0 2.275 9.2 Q 2.3 9.05 2.325 8.925 Q 2.4 8.65 2.375 8.625 A 4.114 4.114 0 0 0 2.414 8.479 Q 2.436 8.39 2.45 8.313 A 4.998 4.998 0 0 1 2.469 8.215 Q 2.479 8.166 2.488 8.124 A 2.638 2.638 0 0 1 2.5 8.075 Q 2.525 8.025 2.55 7.963 Q 2.567 7.921 2.584 7.862 A 1.953 1.953 0 0 0 2.6 7.8 L 2.675 7.55 Q 2.6 7.475 2.6 7.375 A 1.423 1.423 0 0 1 2.605 7.255 A 1.183 1.183 0 0 1 2.613 7.188 Q 2.625 7.1 2.625 7 A 0.59 0.59 0 0 0 2.501 6.726 A 0.658 0.658 0 0 0 2.5 6.725 Q 2.4 6.625 2.35 6.45 A 0.722 0.722 0 0 1 2.289 6.281 A 0.613 0.613 0 0 1 2.275 6.15 Q 2.275 5.973 2.412 5.796 A 0.996 0.996 0 0 1 2.45 5.75 Q 2.558 5.599 2.87 5.504 A 2.149 2.149 0 0 1 2.975 5.475 A 3.576 3.576 0 0 1 3.164 5.433 Q 3.409 5.386 3.571 5.397 A 0.763 0.763 0 0 1 3.6 5.4 Q 3.655 5.4 3.723 5.427 A 0.634 0.634 0 0 1 3.775 5.45 Q 3.908 5.494 3.943 5.499 A 0.052 0.052 0 0 0 3.95 5.5 A 0.392 0.392 0 0 0 3.984 5.515 Q 4.019 5.528 4.068 5.542 A 1.556 1.556 0 0 0 4.1 5.55 Q 4.17 5.568 4.216 5.598 A 0.214 0.214 0 0 1 4.25 5.625 Q 4.3 5.7 4.363 5.763 Q 4.425 5.825 4.45 5.875 Q 4.505 5.985 4.52 6.149 A 1.417 1.417 0 0 1 4.525 6.275 L 4.525 6.65 A 1.917 1.917 0 0 0 4.526 6.721 Q 4.53 6.818 4.544 6.861 A 0.11 0.11 0 0 0 4.55 6.875 A 3.951 3.951 0 0 0 4.574 6.998 Q 4.612 7.174 4.65 7.25 Q 4.65 7.32 4.683 7.402 A 0.596 0.596 0 0 0 4.687 7.413 Q 4.725 7.5 4.75 7.6 L 4.825 7.85 L 4.925 8.125 L 5.1 8.3 Q 5.175 8.4 5.275 8.475 A 0.41 0.41 0 0 1 5.29 8.52 Q 5.316 8.614 5.275 8.675 L 5.275 8.875 Q 5.325 8.875 5.35 8.9 L 5.375 8.9 L 5.5 9.125 A 43.367 43.367 0 0 1 5.543 9.203 Q 5.623 9.347 5.646 9.393 A 0.772 0.772 0 0 1 5.65 9.4 Q 5.63 9.42 5.626 9.474 A 0.371 0.371 0 0 0 5.625 9.5 L 5.625 9.525 A 0.055 0.055 0 0 1 5.619 9.55 Q 5.615 9.558 5.608 9.566 A 0.124 0.124 0 0 1 5.6 9.575 Q 5.625 9.6 5.663 9.7 A 0.583 0.583 0 0 0 5.699 9.779 Q 5.721 9.817 5.75 9.859 A 1.325 1.325 0 0 0 5.8 9.925 A 14.867 14.867 0 0 0 5.848 10.008 Q 5.916 10.125 5.963 10.2 A 2.743 2.743 0 0 0 5.988 10.24 Q 6.022 10.293 6.042 10.316 A 0.15 0.15 0 0 0 6.05 10.325 Q 6.074 10.349 6.052 10.418 A 0.373 0.373 0 0 1 6.05 10.425 L 6.05 10.5 Q 6.05 10.525 6.1 10.575 A 0.072 0.072 0 0 1 6.12 10.577 Q 6.142 10.584 6.148 10.606 A 0.074 0.074 0 0 1 6.15 10.625 A 1.006 1.006 0 0 1 6.208 10.688 A 0.836 0.836 0 0 1 6.237 10.725 Q 6.275 10.775 6.275 10.825 Q 6.275 10.906 6.286 10.967 A 0.41 0.41 0 0 0 6.3 11.025 Q 6.425 11.2 6.525 11.225 Q 6.685 11.271 6.72 11.421 A 0.35 0.35 0 0 1 6.725 11.45 Q 6.774 11.67 7.013 11.818 A 1.001 1.001 0 0 0 7.025 11.825 A 0.71 0.71 0 0 1 7.135 11.872 A 0.632 0.632 0 0 1 7.163 11.888 A 0.335 0.335 0 0 0 7.203 11.908 Q 7.225 11.918 7.244 11.922 A 0.152 0.152 0 0 0 7.275 11.925 A 0.143 0.143 0 0 0 7.33 11.913 Q 7.374 11.895 7.426 11.848 A 0.672 0.672 0 0 0 7.45 11.825 A 0.15 0.15 0 0 0 7.494 11.817 Q 7.561 11.796 7.675 11.718 A 1.959 1.959 0 0 0 7.7 11.7 L 7.85 11.55 A 1.465 1.465 0 0 0 7.934 11.458 A 1.874 1.874 0 0 0 8 11.375 A 1.818 1.818 0 0 1 8.084 11.27 A 1.42 1.42 0 0 1 8.15 11.2 A 0.667 0.667 0 0 0 8.275 11.026 A 0.549 0.549 0 0 1 8.337 10.927 A 0.448 0.448 0 0 1 8.4 10.863 A 0.684 0.684 0 0 0 8.44 10.826 Q 8.478 10.79 8.496 10.758 A 0.171 0.171 0 0 0 8.5 10.75 A 1.272 1.272 0 0 0 8.562 10.683 A 1.532 1.532 0 0 0 8.6 10.638 Q 8.636 10.592 8.672 10.567 A 0.213 0.213 0 0 1 8.7 10.55 Q 8.768 10.482 8.856 10.353 A 2.938 2.938 0 0 0 8.875 10.325 A 0.263 0.263 0 0 1 8.894 10.293 Q 8.916 10.262 8.953 10.223 A 1.13 1.13 0 0 1 8.975 10.2 Q 8.975 10.175 9.024 10.078 A 2.677 2.677 0 0 1 9.025 10.075 A 0.289 0.289 0 0 0 9.061 10.053 Q 9.096 10.029 9.138 9.988 L 9.25 9.875 L 9.375 9.75 A 0.667 0.667 0 0 0 9.5 9.576 A 3.806 3.806 0 0 1 9.612 9.432 A 3.368 3.368 0 0 1 9.65 9.387 A 4.217 4.217 0 0 1 9.686 9.346 Q 9.738 9.288 9.775 9.25 A 2.54 2.54 0 0 0 10.102 8.914 Q 10.244 8.739 10.375 8.525 A 2.674 2.674 0 0 0 10.803 7.925 A 2.413 2.413 0 0 0 10.925 7.65 Q 11.025 7.55 11.138 7.425 Q 11.25 7.3 11.35 7.175 Q 11.603 6.876 11.708 6.725 A 1.564 1.564 0 0 0 11.725 6.7 Q 11.775 6.65 11.813 6.588 A 0.441 0.441 0 0 1 11.839 6.549 Q 11.878 6.497 11.95 6.425 L 12.3 6.075 L 12.5 5.875 A 2.544 2.544 0 0 1 12.635 5.75 A 3.063 3.063 0 0 1 12.725 5.675 A 1.411 1.411 0 0 1 12.832 5.578 Q 12.889 5.532 12.942 5.5 A 0.565 0.565 0 0 1 13.05 5.45 L 13.575 5.375 L 14.225 5.375 A 0.384 0.384 0 0 1 14.422 5.424 Q 14.563 5.506 14.625 5.725 A 0.687 0.687 0 0 1 14.557 5.856 Q 14.457 6.01 14.25 6.2 A 3.304 3.304 0 0 0 14.075 6.344 Q 13.888 6.509 13.8 6.65 A 1.016 1.016 0 0 0 13.762 6.735 Q 13.725 6.83 13.725 6.9 A 1.399 1.399 0 0 0 13.669 6.959 Q 13.594 7.044 13.575 7.1 Q 13.475 7.25 13.45 7.325 A 0.362 0.362 0 0 0 13.423 7.374 Q 13.399 7.427 13.374 7.511 A 2.247 2.247 0 0 0 13.35 7.6 Q 13.332 7.67 13.302 7.716 A 0.214 0.214 0 0 1 13.275 7.75 L 13.225 7.8 Q 13.202 7.823 13.2 7.877 A 0.289 0.289 0 0 0 13.2 7.888 A 0.269 0.269 0 0 1 13.192 7.954 A 0.228 0.228 0 0 1 13.175 8 L 13.1 8.225 Q 13.1 8.275 13.088 8.325 A 0.477 0.477 0 0 1 13.059 8.406 A 0.544 0.544 0 0 1 13.05 8.425 L 12.95 8.525 A 0.607 0.607 0 0 0 12.922 8.589 Q 12.9 8.65 12.9 8.7 A 0.463 0.463 0 0 1 12.913 8.736 Q 12.942 8.833 12.9 8.875 Q 12.9 8.95 12.775 9.15 A 0.129 0.129 0 0 1 12.774 9.169 Q 12.772 9.178 12.769 9.189 A 0.323 0.323 0 0 1 12.762 9.213 A 0.161 0.161 0 0 0 12.757 9.235 Q 12.75 9.273 12.75 9.343 A 1.534 1.534 0 0 0 12.75 9.35 L 12.713 9.5 A 0.237 0.237 0 0 1 12.703 9.531 Q 12.697 9.546 12.689 9.558 A 0.107 0.107 0 0 1 12.675 9.575 L 12.688 9.588 Q 12.698 9.598 12.7 9.617 A 0.088 0.088 0 0 1 12.7 9.625 A 0.207 0.207 0 0 1 12.693 9.676 Q 12.677 9.739 12.625 9.825 A 16.769 16.769 0 0 0 12.602 9.89 Q 12.527 10.099 12.525 10.124 L 12.525 10.138 Q 12.525 10.15 12.501 10.199 A 1.006 1.006 0 0 1 12.5 10.2 Q 12.5 10.25 12.488 10.3 Q 12.475 10.35 12.475 10.4 A 0.502 0.502 0 0 0 12.444 10.478 A 0.447 0.447 0 0 0 12.437 10.5 A 0.477 0.477 0 0 1 12.409 10.581 A 0.544 0.544 0 0 1 12.4 10.6 A 0.652 0.652 0 0 0 12.387 10.644 Q 12.381 10.667 12.378 10.687 A 0.259 0.259 0 0 0 12.375 10.725 A 0.869 0.869 0 0 0 12.357 10.784 Q 12.336 10.868 12.344 10.923 A 0.155 0.155 0 0 0 12.35 10.95 Q 12.4 11.075 12.3 11.2 Q 12.275 11.375 12.225 11.538 A 17.221 17.221 0 0 0 12.138 11.831 A 19.065 19.065 0 0 0 12.125 11.875 A 2.358 2.358 0 0 0 12.027 12.241 Q 11.986 12.466 12 12.675 A 0.127 0.127 0 0 0 11.974 12.716 Q 11.956 12.757 11.952 12.822 A 0.742 0.742 0 0 0 11.95 12.875 Q 11.95 12.996 11.918 13.084 A 0.397 0.397 0 0 1 11.9 13.125 A 0.158 0.158 0 0 0 11.893 13.156 Q 11.885 13.226 11.922 13.342 A 1.025 1.025 0 0 0 11.925 13.35 A 0.344 0.344 0 0 1 11.948 13.444 Q 11.955 13.514 11.931 13.584 A 0.381 0.381 0 0 1 11.925 13.6 A 1.645 1.645 0 0 0 11.909 13.671 Q 11.88 13.814 11.9 13.875 L 11.9 14.075 A 0.989 0.989 0 0 1 11.898 14.133 Q 11.894 14.213 11.875 14.25 L 11.875 14.5 A 0.282 0.282 0 0 0 11.868 14.54 Q 11.86 14.616 11.9 14.675 L 11.9 14.725 Q 11.9 14.766 11.866 14.808 A 0.249 0.249 0 0 1 11.85 14.825 Q 11.829 14.909 11.843 14.976 A 0.232 0.232 0 0 0 11.85 15 Q 11.925 15 11.925 15.075 Q 11.95 15.375 12.1 15.525 A 1.262 1.262 0 0 1 12.223 15.742 A 1.698 1.698 0 0 1 12.3 15.95 A 0.241 0.241 0 0 0 12.28 16.006 A 0.204 0.204 0 0 0 12.275 16.05 L 12.275 16.125 Q 12.275 16.175 12.25 16.2 L 12.175 16.25 A 0.668 0.668 0 0 0 12.002 16.373 A 0.626 0.626 0 0 0 12 16.375 Q 11.954 16.468 11.822 16.432 A 0.408 0.408 0 0 1 11.8 16.425 A 0.632 0.632 0 0 0 11.725 16.429 Q 11.613 16.442 11.575 16.5 Q 11.375 16.625 11.125 16.625 A 3.682 3.682 0 0 1 11.038 16.646 Q 10.926 16.671 10.867 16.674 A 0.29 0.29 0 0 1 10.85 16.675 A 3.251 3.251 0 0 1 10.732 16.673 Q 10.593 16.668 10.513 16.65 Q 10.435 16.633 10.375 16.627 A 0.563 0.563 0 0 0 10.325 16.625 A 0.182 0.182 0 0 1 10.228 16.595 Q 10.152 16.548 10.075 16.425 A 6.657 6.657 0 0 0 10.098 16.366 Q 10.124 16.301 10.14 16.253 A 1.891 1.891 0 0 0 10.15 16.225 L 10.2 16.075 Q 10.2 15.925 10.275 15.75 A 1.439 1.439 0 0 0 10.355 15.633 Q 10.43 15.509 10.449 15.407 A 0.409 0.409 0 0 0 10.45 15.4 A 2.876 2.876 0 0 0 10.58 15.213 A 2.639 2.639 0 0 0 10.587 15.2 A 2.418 2.418 0 0 0 10.7 15 A 0.301 0.301 0 0 0 10.762 14.909 A 0.37 0.37 0 0 0 10.775 14.875 Q 10.8 14.8 10.825 14.75 Q 10.825 14.625 10.925 14.45 Q 10.942 14.4 10.953 14.327 A 1.489 1.489 0 0 0 10.963 14.25 Q 10.975 14.125 11 14 L 11.075 13.575 A 0.263 0.263 0 0 1 11.094 13.543 Q 11.116 13.512 11.153 13.473 A 1.13 1.13 0 0 1 11.175 13.45 L 11.2 13.4 L 11.25 13.3 Q 11.204 13.254 11.263 13.166 A 0.398 0.398 0 0 1 11.275 13.15 A 0.944 0.944 0 0 0 11.304 13.12 Q 11.318 13.104 11.33 13.09 A 0.383 0.383 0 0 0 11.35 13.063 Q 11.373 13.028 11.396 13.004 A 0.293 0.293 0 0 1 11.4 13 Q 11.447 12.953 11.384 12.906 A 0.209 0.209 0 0 0 11.375 12.9 Q 11.329 12.854 11.388 12.766 A 0.398 0.398 0 0 1 11.4 12.75 A 2.083 2.083 0 0 1 11.418 12.707 Q 11.455 12.62 11.475 12.6 L 11.5 12.6 L 11.525 12.55 L 11.525 12.5 A 0.297 0.297 0 0 1 11.527 12.468 Q 11.532 12.422 11.55 12.35 A 0.084 0.084 0 0 0 11.575 12.29 A 0.111 0.111 0 0 0 11.575 12.288 A 0.092 0.092 0 0 1 11.581 12.255 A 0.083 0.083 0 0 1 11.6 12.225 Q 11.6 12.1 11.65 12.05 A 0.945 0.945 0 0 0 11.7 11.755 A 0.886 0.886 0 0 0 11.7 11.75 A 1.054 1.054 0 0 0 11.724 11.684 Q 11.746 11.617 11.749 11.569 A 0.254 0.254 0 0 0 11.75 11.55 L 11.75 11.45 L 11.825 11.35 A 0.353 0.353 0 0 1 11.826 11.318 Q 11.831 11.269 11.85 11.25 Q 11.891 11.209 11.899 11.133 A 0.352 0.352 0 0 0 11.9 11.1 L 11.9 10.525 A 1.917 1.917 0 0 1 11.901 10.454 Q 11.905 10.357 11.919 10.314 A 0.11 0.11 0 0 1 11.925 10.3 A 1.417 1.417 0 0 0 12 9.857 A 1.343 1.343 0 0 0 12 9.85 Q 12 9.725 11.988 9.638 Q 11.975 9.55 11.95 9.45 L 11.95 9.375 Q 11.95 9.294 11.961 9.233 A 0.41 0.41 0 0 1 11.975 9.175 A 0.46 0.46 0 0 1 12.005 9.078 A 0.339 0.339 0 0 1 12.075 8.975 L 12.075 8.675 A 1.792 1.792 0 0 1 12.056 8.606 Q 12.015 8.445 12.039 8.391 A 0.053 0.053 0 0 1 12.05 8.375 Q 12 8.25 12.075 8.175 Q 12.15 8.125 12.225 8.05 A 0.037 0.037 0 0 0 12.233 8.036 Q 12.244 8.007 12.228 7.938 A 0.646 0.646 0 0 0 12.225 7.925 A 3.26 3.26 0 0 0 12.223 7.82 Q 12.22 7.72 12.21 7.653 A 0.561 0.561 0 0 0 12.2 7.6 Q 12.2 7.405 12.176 7.329 A 0.209 0.209 0 0 0 12.175 7.325 A 0.241 0.241 0 0 1 12.155 7.269 A 0.204 0.204 0 0 1 12.15 7.225 L 12.15 7.15 Q 12.1 7.15 12.05 7.163 A 0.477 0.477 0 0 0 11.969 7.191 A 0.544 0.544 0 0 0 11.95 7.2 Q 11.825 7.25 11.675 7.425 A 2.206 2.206 0 0 0 11.576 7.531 Q 11.466 7.657 11.334 7.838 A 6.809 6.809 0 0 0 11.325 7.85 L 11 8.325 L 10.775 8.65 L 10.5 8.85 Q 10.466 8.9 10.41 8.962 A 1.87 1.87 0 0 1 10.35 9.025 A 0.081 0.081 0 0 0 10.295 9.048 Q 10.266 9.074 10.242 9.129 A 0.565 0.565 0 0 0 10.225 9.175 A 0.286 0.286 0 0 0 10.181 9.201 Q 10.125 9.244 10.125 9.3 A 0.15 0.15 0 0 0 10.094 9.346 A 0.185 0.185 0 0 0 10.088 9.363 A 0.17 0.17 0 0 1 10.069 9.401 A 0.144 0.144 0 0 1 10.05 9.425 A 0.055 0.055 0 0 0 10.039 9.443 Q 10.025 9.476 10.025 9.55 L 9.825 9.7 A 0.961 0.961 0 0 1 9.8 9.746 A 0.698 0.698 0 0 1 9.775 9.787 A 0.694 0.694 0 0 0 9.75 9.828 A 0.957 0.957 0 0 0 9.725 9.874 Q 9.7 9.925 9.675 9.988 Q 9.65 10.05 9.625 10.1 Q 9.601 10.194 9.489 10.244 A 0.414 0.414 0 0 1 9.475 10.25 A 0.623 0.623 0 0 0 9.406 10.29 A 0.739 0.739 0 0 0 9.375 10.313 A 0.694 0.694 0 0 1 9.308 10.357 A 0.588 0.588 0 0 1 9.275 10.375 Q 9.2 10.475 9.138 10.563 Q 9.075 10.65 9.025 10.75 Q 8.975 10.85 8.913 10.938 Q 8.85 11.025 8.8 11.1 L 8.3 11.625 Q 8.075 11.875 7.85 12.225 L 7.8 12.275 L 7.725 12.35 A 0.155 0.155 0 0 0 7.64 12.373 Q 7.601 12.398 7.575 12.45 Q 7.503 12.522 7.36 12.735 A 6.809 6.809 0 0 0 7.35 12.75 L 7 13.2 Q 6.9 13.325 6.813 13.425 A 4.073 4.073 0 0 1 6.65 13.6 A 4.475 4.475 0 0 1 6.625 13.625 A 0.564 0.564 0 0 1 6.549 13.69 Q 6.503 13.721 6.458 13.736 A 0.262 0.262 0 0 1 6.375 13.75 A 0.216 0.216 0 0 1 6.264 13.723 Q 6.15 13.656 6.15 13.425 Q 6.15 13.275 6.138 13.163 Q 6.125 13.05 6.1 12.95 A 0.263 0.263 0 0 0 6.081 12.918 Q 6.059 12.887 6.022 12.848 A 1.13 1.13 0 0 0 6 12.825 Q 5.94 12.765 5.912 12.704 A 0.281 0.281 0 0 1 5.9 12.675 A 0.373 0.373 0 0 1 5.904 12.622 Q 5.909 12.581 5.925 12.55 L 5.925 12.375 A 0.353 0.353 0 0 1 5.893 12.374 Q 5.844 12.369 5.825 12.35 A 0.055 0.055 0 0 0 5.836 12.332 Q 5.85 12.299 5.85 12.225 A 0.149 0.149 0 0 1 5.81 12.195 Q 5.784 12.168 5.763 12.125 A 1.376 1.376 0 0 0 5.689 11.996 A 1.537 1.537 0 0 0 5.675 11.975 Q 5.675 11.889 5.684 11.822 A 0.749 0.749 0 0 1 5.687 11.8 A 1.703 1.703 0 0 1 5.699 11.74 Q 5.709 11.688 5.725 11.625 A 0.203 0.203 0 0 1 5.7 11.609 Q 5.656 11.579 5.582 11.506 A 3.069 3.069 0 0 1 5.55 11.475 Q 5.5 11.425 5.475 11.363 Q 5.454 11.311 5.434 11.285 A 0.115 0.115 0 0 0 5.425 11.275 A 2.083 2.083 0 0 1 5.443 11.232 Q 5.48 11.145 5.5 11.125 A 0.129 0.129 0 0 1 5.501 11.106 Q 5.503 11.097 5.506 11.086 A 0.323 0.323 0 0 1 5.513 11.063 Q 5.525 11.026 5.501 11.001 A 0.069 0.069 0 0 0 5.5 11 Q 5.353 10.902 5.254 10.636 A 1.575 1.575 0 0 1 5.25 10.625 A 6.361 6.361 0 0 1 5.215 10.541 Q 5.173 10.439 5.146 10.362 A 1.952 1.952 0 0 1 5.137 10.338 A 2.889 2.889 0 0 0 5.12 10.285 Q 5.101 10.233 5.086 10.199 A 0.517 0.517 0 0 0 5.075 10.175 Q 5.05 10.125 5.025 10.063 A 0.597 0.597 0 0 0 4.998 10.005 Q 4.983 9.977 4.964 9.946 A 1.107 1.107 0 0 0 4.95 9.925 Q 4.825 9.8 4.8 9.725 L 4.725 9.55 Q 4.686 9.433 4.677 9.361 A 0.309 0.309 0 0 1 4.675 9.325 A 0.588 0.588 0 0 0 4.701 9.29 Q 4.768 9.193 4.725 9.15 L 4.675 9.05 Q 4.65 9 4.6 8.95 A 1.821 1.821 0 0 1 4.532 8.86 Q 4.501 8.815 4.477 8.774 A 0.859 0.859 0 0 1 4.45 8.725 L 4.4 8.575 Q 4.375 8.5 4.35 8.45 A 0.59 0.59 0 0 0 4.306 8.352 A 0.723 0.723 0 0 0 4.275 8.3 Q 4.229 8.232 4.184 8.184 A 0.584 0.584 0 0 0 4.175 8.175 Q 4.15 8.125 4.1 8.075 Q 4.054 8.029 4.007 7.96 A 1.144 1.144 0 0 1 4 7.95 A 1.239 1.239 0 0 0 3.96 7.807 Q 3.934 7.735 3.902 7.677 A 0.575 0.575 0 0 0 3.85 7.6 A 0.928 0.928 0 0 0 3.798 7.551 Q 3.709 7.475 3.65 7.475 Q 3.562 7.475 3.454 7.689 A 1.714 1.714 0 0 0 3.425 7.75 Q 3.403 7.772 3.363 7.85 A 1.941 1.941 0 0 0 3.35 7.875 A 0.929 0.929 0 0 1 3.305 7.954 Q 3.263 8.022 3.2 8.1 Q 3.025 8.3 3.025 8.4 Q 3.025 8.425 2.95 8.625 Q 2.878 8.816 2.898 8.847 A 0.015 0.015 0 0 0 2.9 8.85 A 0.198 0.198 0 0 1 2.883 8.927 Q 2.858 8.986 2.796 9.054 A 0.817 0.817 0 0 1 2.775 9.075 Q 2.638 9.166 2.668 9.3 A 0.263 0.263 0 0 0 2.675 9.325 L 2.675 9.413 Q 2.675 9.475 2.65 9.575 L 2.575 9.875 L 2.5 9.925 L 2.475 10.05 L 2.475 10.15 Q 2.475 10.218 2.455 10.326 A 2.078 2.078 0 0 1 2.45 10.35 A 1.61 1.61 0 0 1 2.446 10.461 Q 2.439 10.567 2.416 10.635 A 0.309 0.309 0 0 1 2.4 10.675 Q 2.328 10.699 2.302 10.77 A 0.194 0.194 0 0 0 2.3 10.775 L 2.3 10.8 A 0.129 0.129 0 0 0 2.286 10.826 Q 2.266 10.88 2.31 10.934 A 0.223 0.223 0 0 0 2.325 10.95 A 0.113 0.113 0 0 0 2.312 10.965 Q 2.306 10.974 2.303 10.983 A 0.052 0.052 0 0 0 2.3 11 A 0.055 0.055 0 0 1 2.294 11.025 Q 2.29 11.033 2.283 11.041 A 0.124 0.124 0 0 1 2.275 11.05 Q 2.255 11.07 2.251 11.124 A 0.371 0.371 0 0 0 2.25 11.15 Q 2.27 11.15 2.274 11.166 A 0.037 0.037 0 0 1 2.275 11.175 Q 2.275 11.205 2.284 11.217 A 0.019 0.019 0 0 0 2.3 11.225 A 0.458 0.458 0 0 0 2.221 11.369 A 0.418 0.418 0 0 0 2.2 11.5 A 1.917 1.917 0 0 1 2.199 11.571 Q 2.195 11.668 2.181 11.711 A 0.11 0.11 0 0 1 2.175 11.725 A 0.075 0.075 0 0 0 2.177 11.741 Q 2.18 11.756 2.19 11.778 A 0.45 0.45 0 0 0 2.2 11.8 A 0.241 0.241 0 0 1 2.22 11.856 A 0.204 0.204 0 0 1 2.225 11.9 L 2.225 11.925 Q 2.136 12.014 2.136 12.091 A 0.131 0.131 0 0 0 2.15 12.15 L 2.15 12.2 A 0.213 0.213 0 0 1 2.135 12.277 A 0.261 0.261 0 0 1 2.125 12.3 L 1.95 12.425 Q 1.905 12.47 1.92 12.673 A 2.009 2.009 0 0 0 1.925 12.725 L 1.925 13.075 A 0.22 0.22 0 0 0 1.907 13.127 Q 1.902 13.152 1.9 13.18 A 0.421 0.421 0 0 0 1.9 13.2 A 0.185 0.185 0 0 1 1.889 13.266 A 0.166 0.166 0 0 1 1.85 13.325 A 0.338 0.338 0 0 1 1.839 13.412 A 0.246 0.246 0 0 1 1.775 13.525 A 0.608 0.608 0 0 0 1.762 13.553 Q 1.729 13.628 1.75 13.65 Q 1.771 13.671 1.774 13.709 A 0.176 0.176 0 0 1 1.775 13.725 A 0.075 0.075 0 0 1 1.782 13.745 Q 1.79 13.79 1.76 13.873 A 0.768 0.768 0 0 1 1.75 13.9 A 2.499 2.499 0 0 1 1.732 13.952 Q 1.695 14.055 1.675 14.075 A 0.174 0.174 0 0 0 1.663 14.108 Q 1.65 14.157 1.65 14.238 A 0.904 0.904 0 0 0 1.664 14.398 A 0.798 0.798 0 0 0 1.675 14.45 Q 1.675 14.659 1.658 14.711 A 0.037 0.037 0 0 1 1.65 14.725 L 1.65 14.8 A 0.557 0.557 0 0 0 1.651 14.835 Q 1.654 14.871 1.66 14.921 A 2.071 2.071 0 0 0 1.663 14.938 Q 1.671 14.998 1.686 15.076 A 5.713 5.713 0 0 0 1.7 15.15 L 1.85 15.55 L 1.925 15.65 A 0.033 0.033 0 0 1 1.938 15.654 Q 1.966 15.666 2.023 15.723 A 1.318 1.318 0 0 1 2.025 15.725 A 0.127 0.127 0 0 1 2.062 15.817 Q 2.063 15.857 2.044 15.908 A 0.468 0.468 0 0 1 2.025 15.95 Q 2.001 16.048 1.964 16.098 A 0.2 0.2 0 0 1 1.962 16.1 A 0.694 0.694 0 0 0 1.918 16.167 A 0.588 0.588 0 0 0 1.9 16.2 A 0.55 0.55 0 0 1 1.72 16.368 A 0.748 0.748 0 0 1 1.6 16.425 Q 1.5 16.425 1.4 16.438 Q 1.3 16.45 1.2 16.475 A 1.674 1.674 0 0 0 1.039 16.516 A 2.06 2.06 0 0 0 0.938 16.55 Q 0.8 16.6 0.65 16.65 Q 0.533 16.689 0.461 16.698 A 0.309 0.309 0 0 1 0.425 16.7 Q 0.225 16.7 0.05 16.525 Z M 60 16.625 L 59.85 16.475 L 59.688 16.313 Q 59.629 16.254 59.581 16.162 A 0.874 0.874 0 0 1 59.575 16.15 A 0.046 0.046 0 0 1 59.566 16.133 Q 59.551 16.09 59.55 15.959 A 2.4 2.4 0 0 1 59.55 15.95 Q 59.55 15.75 59.575 15.725 A 0.996 0.996 0 0 0 59.6 15.699 Q 59.636 15.66 59.646 15.639 A 0.034 0.034 0 0 0 59.65 15.625 Q 59.65 15.575 59.675 15.55 L 59.675 15.475 A 0.457 0.457 0 0 1 59.69 15.36 A 0.631 0.631 0 0 1 59.725 15.262 Q 59.775 15.15 59.8 15.025 Q 59.85 14.925 59.863 14.85 Q 59.875 14.775 59.9 14.7 A 0.472 0.472 0 0 1 59.925 14.551 Q 59.95 14.475 59.975 14.425 L 60.125 14.1 Q 60.175 14 60.2 13.925 L 60.25 13.775 L 60.325 13.5 L 60.4 13.2 A 1.703 1.703 0 0 1 60.43 13.116 Q 60.465 13.027 60.5 12.975 A 0.258 0.258 0 0 1 60.503 12.938 Q 60.509 12.899 60.525 12.85 Q 60.55 12.775 60.575 12.725 L 60.65 12.4 Q 60.65 12.283 60.694 12.144 A 1.236 1.236 0 0 1 60.7 12.125 A 0.472 0.472 0 0 0 60.725 11.977 A 0.458 0.458 0 0 0 60.725 11.975 L 60.725 11.825 L 60.725 11.613 Q 60.725 11.5 60.675 11.4 Q 60.625 11.2 60.575 11.038 A 2.608 2.608 0 0 0 60.541 10.933 Q 60.524 10.887 60.508 10.847 A 1.134 1.134 0 0 0 60.475 10.775 L 60.425 10.675 A 0.461 0.461 0 0 0 60.409 10.646 Q 60.392 10.617 60.375 10.6 Q 60.325 10.525 60.2 10.475 A 0.588 0.588 0 0 1 60.083 10.567 A 0.457 0.457 0 0 1 59.925 10.625 Q 59.825 10.65 59.738 10.675 Q 59.654 10.699 59.605 10.723 A 0.387 0.387 0 0 0 59.6 10.725 L 59.25 11.075 L 59.025 11.275 Q 58.979 11.321 58.91 11.368 A 1.144 1.144 0 0 1 58.9 11.375 Q 58.832 11.421 58.784 11.466 A 0.584 0.584 0 0 0 58.775 11.475 L 58.675 11.575 A 0.263 0.263 0 0 1 58.656 11.607 Q 58.634 11.638 58.597 11.677 A 1.13 1.13 0 0 1 58.575 11.7 Q 58.515 11.76 58.454 11.788 A 0.281 0.281 0 0 1 58.425 11.8 A 0.334 0.334 0 0 0 58.339 11.861 A 0.324 0.324 0 0 0 58.337 11.862 A 0.334 0.334 0 0 1 58.25 11.925 A 0.078 0.078 0 0 0 58.231 11.956 Q 58.227 11.969 58.226 11.984 A 0.176 0.176 0 0 0 58.225 12 A 0.055 0.055 0 0 1 58.219 12.025 Q 58.215 12.033 58.208 12.041 A 0.124 0.124 0 0 1 58.2 12.05 L 58.1 12.125 Q 58.059 12.125 58.017 12.159 A 0.249 0.249 0 0 0 58 12.175 L 57.963 12.25 L 57.95 12.275 L 57.55 12.575 A 1.401 1.401 0 0 0 57.308 12.813 A 1.213 1.213 0 0 0 57.2 12.975 A 1.538 1.538 0 0 0 57.105 13.218 Q 57.068 13.341 57.043 13.484 A 2.932 2.932 0 0 0 57.025 13.6 A 2.492 2.492 0 0 1 56.988 13.904 Q 56.949 14.112 56.875 14.275 A 0.299 0.299 0 0 0 56.818 14.357 Q 56.789 14.417 56.775 14.5 A 1.281 1.281 0 0 0 56.748 14.58 Q 56.711 14.702 56.721 14.777 A 0.198 0.198 0 0 0 56.725 14.8 A 0.22 0.22 0 0 1 56.743 14.852 Q 56.748 14.877 56.75 14.905 A 0.421 0.421 0 0 1 56.75 14.925 A 0.472 0.472 0 0 0 56.775 15.074 Q 56.775 15.161 56.784 15.228 A 0.749 0.749 0 0 0 56.787 15.25 A 1.703 1.703 0 0 0 56.799 15.31 Q 56.809 15.363 56.825 15.425 Q 56.875 15.6 56.975 15.799 A 0.127 0.127 0 0 1 57.001 15.841 Q 57.019 15.882 57.023 15.947 A 0.742 0.742 0 0 1 57.025 16 Q 57.025 16.121 56.993 16.209 A 0.397 0.397 0 0 1 56.975 16.25 Q 56.85 16.475 56.625 16.65 A 0.963 0.963 0 0 1 56.49 16.726 Q 56.364 16.783 56.247 16.783 A 0.46 0.46 0 0 1 56.075 16.75 L 55.925 16.7 Q 55.884 16.7 55.842 16.666 A 0.249 0.249 0 0 1 55.825 16.65 Q 55.718 16.543 55.757 16.418 A 0.292 0.292 0 0 1 55.775 16.375 L 55.9 16.075 L 55.9 15.875 Q 55.95 15.625 56.013 15.388 A 4.922 4.922 0 0 1 56.093 15.112 A 3.99 3.99 0 0 1 56.15 14.95 Q 56.3 14.525 56.45 14.05 A 1.429 1.429 0 0 0 56.523 13.808 A 1.329 1.329 0 0 0 56.525 13.8 Q 56.55 13.675 56.575 13.575 L 56.625 13.325 A 5.715 5.715 0 0 1 56.65 13.206 A 4.158 4.158 0 0 1 56.675 13.1 Q 56.699 13.076 56.677 13.007 A 0.373 0.373 0 0 0 56.675 13 A 0.017 0.017 0 0 1 56.661 12.991 Q 56.652 12.977 56.65 12.941 A 0.378 0.378 0 0 1 56.65 12.925 L 56.65 12.6 A 0.943 0.943 0 0 1 56.7 12.301 A 1.005 1.005 0 0 1 56.7 12.3 A 4.025 4.025 0 0 1 56.819 11.952 Q 56.889 11.776 56.97 11.629 A 2.346 2.346 0 0 1 57 11.575 A 4.697 4.697 0 0 0 57.115 11.361 A 3.928 3.928 0 0 0 57.175 11.238 A 13.277 13.277 0 0 0 57.306 10.944 A 14.566 14.566 0 0 0 57.325 10.9 Q 57.375 10.8 57.4 10.675 Q 57.425 10.55 57.425 10.425 A 1.759 1.759 0 0 1 57.441 10.182 Q 57.459 10.054 57.497 9.946 A 0.965 0.965 0 0 1 57.525 9.875 L 57.75 9.3 L 57.975 8.7 Q 57.996 8.638 58.067 8.493 A 7.457 7.457 0 0 1 58.1 8.425 A 1.982 1.982 0 0 0 58.173 8.307 Q 58.207 8.248 58.232 8.192 A 1.054 1.054 0 0 0 58.25 8.15 L 58.25 7.775 L 58.325 7.5 A 0.734 0.734 0 0 1 58.338 7.369 Q 58.348 7.309 58.369 7.244 A 1.236 1.236 0 0 1 58.375 7.225 L 58.525 6.775 A 0.961 0.961 0 0 1 58.55 6.729 A 0.698 0.698 0 0 1 58.575 6.688 A 0.502 0.502 0 0 1 58.597 6.657 Q 58.609 6.642 58.621 6.629 A 0.293 0.293 0 0 1 58.625 6.625 A 0.031 0.031 0 0 0 58.651 6.608 Q 58.669 6.579 58.674 6.503 A 0.947 0.947 0 0 0 58.675 6.45 A 0.869 0.869 0 0 0 58.693 6.391 Q 58.714 6.307 58.706 6.252 A 0.155 0.155 0 0 0 58.7 6.225 L 58.7 6.1 A 0.373 0.373 0 0 1 58.704 6.047 Q 58.709 6.006 58.725 5.975 L 58.775 5.725 Q 58.8 5.6 58.825 5.5 Q 58.85 5.275 58.975 5 Q 59 4.925 59.025 4.863 Q 59.05 4.8 59.075 4.75 L 59.225 4.5 L 59.3 4.425 Q 59.325 4.425 59.375 4.375 A 0.113 0.113 0 0 1 59.362 4.36 Q 59.356 4.351 59.353 4.342 A 0.052 0.052 0 0 1 59.35 4.325 L 59.35 4.25 A 0.417 0.417 0 0 0 59.377 4.179 A 0.511 0.511 0 0 0 59.387 4.138 Q 59.4 4.075 59.425 4.001 A 1.505 1.505 0 0 1 59.425 4 A 2.469 2.469 0 0 1 59.591 3.67 A 2.031 2.031 0 0 1 59.725 3.475 L 60.1 2.95 A 2.348 2.348 0 0 0 60.248 2.675 A 2.029 2.029 0 0 0 60.3 2.55 A 2.792 2.792 0 0 1 60.394 2.33 A 3.695 3.695 0 0 1 60.5 2.125 Q 60.775 1.75 61.1 1.45 A 6.735 6.735 0 0 1 61.396 1.17 Q 61.607 0.984 61.8 0.85 Q 61.95 0.725 62.125 0.638 Q 62.3 0.55 62.475 0.45 Q 62.675 0.35 62.875 0.263 A 2.54 2.54 0 0 1 63.25 0.131 A 2.348 2.348 0 0 1 63.275 0.125 A 0.169 0.169 0 0 1 63.395 0.075 A 0.221 0.221 0 0 1 63.4 0.075 A 0.622 0.622 0 0 0 63.44 0.074 Q 63.505 0.07 63.525 0.05 Q 63.648 0.001 63.82 0.048 A 0.799 0.799 0 0 1 63.825 0.05 A 1.335 1.335 0 0 0 63.884 0.049 Q 63.914 0.047 63.94 0.045 A 0.541 0.541 0 0 0 63.988 0.038 A 0.484 0.484 0 0 0 64.057 0.018 A 0.398 0.398 0 0 0 64.1 0 L 64.375 0.075 A 0.573 0.573 0 0 1 64.449 0.101 Q 64.556 0.148 64.575 0.225 Q 64.595 0.245 64.599 0.299 A 0.371 0.371 0 0 1 64.6 0.325 L 64.525 0.4 Q 64.5 0.45 64.45 0.45 A 0.194 0.194 0 0 1 64.391 0.479 Q 64.283 0.513 64.075 0.475 L 63.7 0.4 Q 63.567 0.356 63.532 0.351 A 0.052 0.052 0 0 0 63.525 0.35 Q 63.275 0.4 63.05 0.513 A 5.193 5.193 0 0 0 62.675 0.719 A 4.719 4.719 0 0 0 62.625 0.75 Q 62.425 0.875 62.238 1.025 A 8.812 8.812 0 0 1 61.986 1.219 A 7.461 7.461 0 0 1 61.875 1.3 A 0.235 0.235 0 0 0 61.861 1.315 Q 61.839 1.342 61.803 1.395 A 2.322 2.322 0 0 0 61.8 1.4 Q 61.75 1.475 61.7 1.575 A 0.264 0.264 0 0 1 61.677 1.624 Q 61.644 1.681 61.575 1.75 Q 61.475 1.825 61.425 1.95 A 1.387 1.387 0 0 0 61.386 1.991 Q 61.352 2.028 61.313 2.075 A 1.812 1.812 0 0 0 61.226 2.188 A 1.609 1.609 0 0 0 61.2 2.225 Q 61.15 2.325 61.088 2.413 Q 61.025 2.5 60.975 2.6 A 0.417 0.417 0 0 0 60.948 2.671 A 0.511 0.511 0 0 0 60.938 2.713 A 0.211 0.211 0 0 1 60.892 2.807 A 0.265 0.265 0 0 1 60.875 2.825 A 0.17 0.17 0 0 1 60.868 2.87 Q 60.849 2.939 60.776 3.049 A 2.772 2.772 0 0 1 60.775 3.05 A 0.534 0.534 0 0 1 60.721 3.208 Q 60.689 3.269 60.641 3.33 A 0.96 0.96 0 0 1 60.625 3.35 A 1.37 1.37 0 0 0 60.524 3.528 A 1.126 1.126 0 0 0 60.475 3.65 A 0.409 0.409 0 0 0 60.461 3.707 Q 60.455 3.738 60.453 3.773 A 1.021 1.021 0 0 0 60.45 3.85 L 60.45 4.05 A 1.759 1.759 0 0 1 60.429 4.09 Q 60.4 4.144 60.382 4.167 A 0.103 0.103 0 0 1 60.375 4.175 A 0.084 0.084 0 0 0 60.35 4.235 A 0.111 0.111 0 0 0 60.35 4.238 A 0.092 0.092 0 0 1 60.344 4.27 A 0.083 0.083 0 0 1 60.325 4.3 A 0.341 0.341 0 0 0 60.306 4.348 Q 60.298 4.372 60.292 4.399 A 0.65 0.65 0 0 0 60.288 4.425 A 0.349 0.349 0 0 1 60.258 4.518 A 0.458 0.458 0 0 1 60.225 4.575 A 0.472 0.472 0 0 1 60.2 4.724 Q 60.175 4.8 60.15 4.85 L 59.825 5.6 L 59.45 6.3 A 0.402 0.402 0 0 1 59.433 6.342 Q 59.4 6.413 59.325 6.525 Q 59.225 6.625 59.175 6.75 A 0.353 0.353 0 0 1 59.174 6.782 Q 59.169 6.831 59.15 6.85 L 59.15 6.95 Q 59.1 7 59.083 7.05 A 0.157 0.157 0 0 0 59.075 7.1 A 0.457 0.457 0 0 0 59.059 7.136 Q 59.03 7.209 59.05 7.25 Q 59.075 7.3 59.025 7.4 Q 58.975 7.5 58.913 7.613 Q 58.85 7.725 58.75 7.825 Q 58.717 7.892 58.717 7.947 A 0.166 0.166 0 0 0 58.725 8 A 0.319 0.319 0 0 1 58.72 8.056 Q 58.715 8.087 58.703 8.111 A 0.148 0.148 0 0 1 58.675 8.15 A 0.439 0.439 0 0 1 58.655 8.169 Q 58.624 8.196 58.605 8.2 A 0.029 0.029 0 0 1 58.6 8.2 L 58.575 8.2 A 0.055 0.055 0 0 0 58.55 8.206 Q 58.542 8.21 58.534 8.217 A 0.124 0.124 0 0 0 58.525 8.225 L 58.3 8.7 Q 58.275 8.775 58.275 8.925 A 2.15 2.15 0 0 1 58.272 9.042 Q 58.269 9.099 58.263 9.15 A 1.123 1.123 0 0 1 58.249 9.233 Q 58.241 9.275 58.229 9.312 A 0.653 0.653 0 0 1 58.225 9.325 L 58.125 9.725 A 2.671 2.671 0 0 1 58.089 9.853 A 3.292 3.292 0 0 1 58.062 9.938 A 1.946 1.946 0 0 0 58.007 10.14 A 2.174 2.174 0 0 0 58 10.175 Q 58 10.256 57.989 10.317 A 0.41 0.41 0 0 1 57.975 10.375 L 57.975 10.575 Q 57.95 10.675 57.938 10.775 Q 57.925 10.875 57.925 11 L 57.925 11.238 Q 57.925 11.35 57.9 11.475 A 0.461 0.461 0 0 1 57.929 11.491 Q 57.958 11.508 57.975 11.525 A 0.113 0.113 0 0 0 57.99 11.538 Q 57.999 11.544 58.008 11.547 A 0.052 0.052 0 0 0 58.025 11.55 A 0.029 0.029 0 0 0 58.041 11.575 Q 58.082 11.6 58.22 11.6 A 1.596 1.596 0 0 0 58.225 11.6 Q 58.264 11.542 58.325 11.476 A 1.573 1.573 0 0 1 58.363 11.438 L 58.55 11.25 A 7.676 7.676 0 0 0 58.669 11.153 A 5.807 5.807 0 0 0 58.775 11.063 A 2.492 2.492 0 0 1 58.845 11.003 Q 58.877 10.977 58.907 10.956 A 1.129 1.129 0 0 1 58.95 10.925 A 1.022 1.022 0 0 0 58.988 10.885 Q 59.032 10.836 59.05 10.8 Q 59.147 10.703 59.197 10.676 A 0.148 0.148 0 0 1 59.2 10.675 L 59.65 10.375 L 59.75 10.275 Q 59.772 10.253 59.85 10.213 A 1.941 1.941 0 0 1 59.875 10.2 Q 59.895 10.18 59.949 10.176 A 0.371 0.371 0 0 1 59.975 10.175 Q 60.025 10.175 60.075 10.188 A 0.152 0.152 0 0 0 60.089 10.19 Q 60.11 10.194 60.126 10.189 A 0.055 0.055 0 0 0 60.15 10.175 L 60.25 10.1 A 0.263 0.263 0 0 1 60.269 10.068 Q 60.291 10.037 60.328 9.998 A 1.13 1.13 0 0 1 60.35 9.975 A 0.557 0.557 0 0 0 60.385 9.974 Q 60.421 9.971 60.471 9.965 A 2.071 2.071 0 0 0 60.487 9.962 Q 60.548 9.954 60.626 9.939 A 5.713 5.713 0 0 0 60.7 9.925 L 61.125 9.85 L 61.25 9.85 L 61.375 9.85 A 0.472 0.472 0 0 1 61.524 9.875 L 61.625 10.025 A 0.608 0.608 0 0 1 61.667 10.112 Q 61.704 10.205 61.734 10.343 A 2.687 2.687 0 0 1 61.75 10.425 A 1.958 1.958 0 0 1 61.768 10.564 Q 61.782 10.709 61.768 10.826 A 0.797 0.797 0 0 1 61.75 10.925 Q 61.725 11 61.65 11.075 Q 61.553 11.172 61.526 11.222 A 0.148 0.148 0 0 0 61.525 11.225 A 0.698 0.698 0 0 0 61.417 11.399 A 0.603 0.603 0 0 0 61.375 11.55 L 61.225 11.9 A 17.182 17.182 0 0 0 61.075 12.289 A 19.448 19.448 0 0 0 61.025 12.425 Q 60.925 12.7 60.85 12.975 A 9.2 9.2 0 0 0 60.685 13.475 A 10.156 10.156 0 0 0 60.662 13.55 A 35.314 35.314 0 0 0 60.538 13.986 A 30.728 30.728 0 0 0 60.5 14.125 A 1.361 1.361 0 0 0 60.478 14.231 A 1.832 1.832 0 0 0 60.462 14.35 Q 60.45 14.475 60.425 14.6 L 60.425 14.9 A 1.567 1.567 0 0 0 60.433 15.059 A 1.227 1.227 0 0 0 60.45 15.175 L 60.5 15.425 L 60.55 15.675 Q 60.675 15.925 60.825 15.95 L 61.05 15.825 A 0.37 0.37 0 0 0 61.182 15.802 A 0.332 0.332 0 0 0 61.3 15.725 L 61.425 15.6 L 61.675 15.375 L 61.788 15.263 Q 61.846 15.204 61.894 15.112 A 0.874 0.874 0 0 0 61.9 15.1 A 0.301 0.301 0 0 0 61.962 15.009 A 0.37 0.37 0 0 0 61.975 14.975 L 62.025 14.825 A 0.139 0.139 0 0 1 62.084 14.711 Q 62.133 14.673 62.222 14.651 A 0.693 0.693 0 0 1 62.225 14.65 A 0.046 0.046 0 0 0 62.232 14.676 Q 62.244 14.694 62.277 14.699 A 0.173 0.173 0 0 0 62.3 14.7 L 62.35 14.75 Q 62.35 14.83 62.302 14.975 A 2.188 2.188 0 0 1 62.275 15.05 A 0.981 0.981 0 0 1 62.211 15.16 A 0.801 0.801 0 0 1 62.163 15.225 A 1.812 1.812 0 0 0 62.076 15.338 A 1.609 1.609 0 0 0 62.05 15.375 A 1.719 1.719 0 0 1 61.96 15.497 A 1.942 1.942 0 0 1 61.938 15.525 A 2.533 2.533 0 0 1 61.892 15.578 Q 61.856 15.619 61.825 15.65 A 2.396 2.396 0 0 1 61.766 15.719 Q 61.681 15.813 61.625 15.85 Q 61.55 15.9 61.5 15.975 A 0.961 0.961 0 0 1 61.475 16.021 A 0.698 0.698 0 0 1 61.45 16.062 A 0.694 0.694 0 0 0 61.425 16.103 A 0.957 0.957 0 0 0 61.4 16.149 A 0.615 0.615 0 0 1 61.369 16.192 Q 61.313 16.262 61.202 16.373 A 5.288 5.288 0 0 1 61.2 16.375 A 1.434 1.434 0 0 1 61.076 16.484 Q 61.01 16.537 60.93 16.59 A 2.643 2.643 0 0 1 60.875 16.625 A 3.444 3.444 0 0 1 60.547 16.791 A 3.172 3.172 0 0 1 60.525 16.8 A 1.423 1.423 0 0 1 60.405 16.795 A 1.183 1.183 0 0 1 60.337 16.788 Q 60.255 16.776 60.162 16.731 A 0.874 0.874 0 0 1 60.15 16.725 Q 60.075 16.7 60 16.625 Z M 34.375 13.075 L 34.275 13.05 A 0.215 0.215 0 0 0 34.264 13.031 Q 34.245 13 34.225 13 A 0.055 0.055 0 0 1 34.2 12.994 Q 34.192 12.99 34.184 12.983 A 0.124 0.124 0 0 1 34.175 12.975 Q 34.133 12.954 34.003 12.986 A 1.446 1.446 0 0 0 33.95 13 Q 33.783 13.072 33.707 13.075 A 0.165 0.165 0 0 1 33.7 13.075 L 33.325 13.075 A 0.472 0.472 0 0 1 33.177 13.1 A 0.458 0.458 0 0 1 33.175 13.1 A 0.472 0.472 0 0 0 33.026 13.125 L 32.85 13.125 A 0.551 0.551 0 0 0 32.785 13.129 Q 32.734 13.135 32.675 13.15 A 0.362 0.362 0 0 0 32.648 13.199 Q 32.624 13.252 32.599 13.336 A 2.247 2.247 0 0 0 32.575 13.425 Q 32.575 13.511 32.566 13.578 A 0.749 0.749 0 0 1 32.563 13.6 A 1.703 1.703 0 0 1 32.551 13.66 Q 32.541 13.713 32.525 13.775 Q 32.398 14.175 32.363 14.733 A 7.125 7.125 0 0 0 32.35 15.175 L 32.35 15.775 Q 32.35 15.796 32.367 15.816 A 0.124 0.124 0 0 0 32.375 15.825 Q 32.421 15.825 32.382 15.868 A 0.238 0.238 0 0 1 32.375 15.875 Q 32.35 15.975 32.325 16.063 Q 32.3 16.15 32.25 16.25 Q 32.178 16.274 32.152 16.345 A 0.194 0.194 0 0 0 32.15 16.35 A 0.272 0.272 0 0 0 32.133 16.379 Q 32.105 16.435 32.125 16.475 L 32.113 16.5 A 0.064 0.064 0 0 1 32.101 16.516 Q 32.084 16.533 32.05 16.55 Q 31.925 16.65 31.675 16.675 A 1.348 1.348 0 0 1 31.598 16.692 Q 31.408 16.728 31.315 16.679 A 0.162 0.162 0 0 1 31.275 16.65 Q 31.231 16.628 31.15 16.512 A 2.027 2.027 0 0 1 31.125 16.475 A 1.982 1.982 0 0 1 31.052 16.357 Q 31.018 16.298 30.993 16.242 A 1.054 1.054 0 0 1 30.975 16.2 Q 30.925 16.075 31.025 15.95 Q 31.075 15.875 31.113 15.813 A 2.113 2.113 0 0 0 31.143 15.76 Q 31.161 15.728 31.175 15.7 A 1.304 1.304 0 0 0 31.201 15.611 Q 31.213 15.566 31.219 15.526 A 0.519 0.519 0 0 0 31.225 15.45 Q 31.225 15.35 31.275 15.2 Q 31.325 15.025 31.4 14.888 A 10.411 10.411 0 0 0 31.453 14.79 Q 31.473 14.751 31.491 14.716 A 5.361 5.361 0 0 0 31.525 14.65 A 0.225 0.225 0 0 0 31.551 14.62 Q 31.563 14.601 31.57 14.583 A 0.105 0.105 0 0 0 31.575 14.55 Q 31.605 14.55 31.617 14.541 A 0.019 0.019 0 0 0 31.625 14.525 A 0.055 0.055 0 0 1 31.631 14.5 Q 31.635 14.492 31.642 14.484 A 0.124 0.124 0 0 1 31.65 14.475 L 31.775 14.125 A 0.679 0.679 0 0 1 31.78 14.042 Q 31.785 13.998 31.797 13.961 A 0.404 0.404 0 0 1 31.8 13.95 Q 31.821 13.886 31.843 13.803 A 3.333 3.333 0 0 0 31.85 13.775 A 1.552 1.552 0 0 1 31.926 13.528 A 1.271 1.271 0 0 1 32 13.375 A 1.328 1.328 0 0 0 32.11 13.124 A 1.64 1.64 0 0 0 32.15 12.975 L 32.15 12.85 A 0.373 0.373 0 0 1 32.154 12.797 Q 32.159 12.756 32.175 12.725 L 32.175 12.575 A 0.472 0.472 0 0 1 32.2 12.426 A 8.268 8.268 0 0 0 32.305 11.802 A 10.034 10.034 0 0 0 32.35 11.4 Q 32.35 11.125 32.4 10.875 Q 32.45 10.625 32.525 10.375 Q 32.575 10.275 32.588 10.188 Q 32.6 10.1 32.625 10 Q 32.675 9.9 32.713 9.813 A 4.705 4.705 0 0 1 32.73 9.771 Q 32.75 9.726 32.766 9.694 A 1.339 1.339 0 0 1 32.775 9.675 A 1.022 1.022 0 0 0 32.813 9.635 Q 32.857 9.586 32.875 9.55 Q 32.909 9.516 32.942 9.46 A 0.913 0.913 0 0 0 32.975 9.4 A 1.712 1.712 0 0 0 33.023 9.263 A 1.355 1.355 0 0 0 33.05 9.163 Q 33.075 9.05 33.1 8.925 A 14.741 14.741 0 0 0 33.138 8.73 A 16.9 16.9 0 0 0 33.15 8.663 A 4.998 4.998 0 0 1 33.169 8.565 Q 33.179 8.516 33.188 8.474 A 2.638 2.638 0 0 1 33.2 8.425 L 33.3 8.175 A 0.221 0.221 0 0 0 33.36 8.062 A 0.274 0.274 0 0 0 33.362 8.05 Q 33.375 7.975 33.4 7.925 Q 33.447 7.878 33.384 7.831 A 0.209 0.209 0 0 0 33.375 7.825 A 0.113 0.113 0 0 1 33.362 7.81 Q 33.336 7.772 33.367 7.734 A 0.124 0.124 0 0 1 33.375 7.725 Q 33.413 7.648 33.422 7.601 A 0.141 0.141 0 0 0 33.425 7.575 A 0.225 0.225 0 0 0 33.451 7.545 Q 33.463 7.526 33.47 7.508 A 0.105 0.105 0 0 0 33.475 7.475 A 0.213 0.213 0 0 1 33.49 7.398 A 0.261 0.261 0 0 1 33.5 7.375 Q 33.525 7.325 33.525 7.238 L 33.525 7.05 Q 33.55 6.95 33.575 6.863 Q 33.6 6.775 33.625 6.675 A 2.105 2.105 0 0 0 33.689 6.513 Q 33.718 6.433 33.734 6.36 A 1.049 1.049 0 0 0 33.75 6.275 A 0.409 0.409 0 0 0 33.764 6.218 Q 33.77 6.187 33.772 6.152 A 1.021 1.021 0 0 0 33.775 6.075 Q 33.775 5.994 33.786 5.933 A 0.41 0.41 0 0 1 33.8 5.875 A 4.431 4.431 0 0 0 33.85 5.744 A 5.639 5.639 0 0 0 33.9 5.6 Q 33.95 5.45 34 5.275 L 34 5.05 A 0.238 0.238 0 0 0 34.024 4.966 A 0.292 0.292 0 0 0 34.025 4.938 A 0.248 0.248 0 0 1 34.027 4.909 Q 34.03 4.877 34.043 4.858 A 0.061 0.061 0 0 1 34.05 4.85 A 0.679 0.679 0 0 1 34.055 4.767 Q 34.06 4.723 34.072 4.686 A 0.404 0.404 0 0 1 34.075 4.675 Q 34.1 4.625 34.125 4.563 Q 34.15 4.5 34.175 4.45 L 34.275 4.2 A 4.639 4.639 0 0 0 34.333 4.049 A 3.832 3.832 0 0 0 34.363 3.963 Q 34.4 3.85 34.425 3.75 A 13.45 13.45 0 0 0 34.469 3.638 Q 34.493 3.578 34.513 3.525 A 0.737 0.737 0 0 1 34.572 3.403 A 0.939 0.939 0 0 1 34.625 3.325 A 0.264 0.264 0 0 1 34.648 3.276 Q 34.681 3.219 34.75 3.15 Q 34.852 3.048 34.904 2.979 A 0.598 0.598 0 0 0 34.925 2.95 Q 35.022 2.853 35.049 2.803 A 0.148 0.148 0 0 0 35.05 2.8 L 35.1 2.7 L 35.15 2.6 A 1.818 1.818 0 0 1 35.234 2.495 A 1.42 1.42 0 0 1 35.3 2.425 L 35.45 2.275 L 35.75 1.975 A 0.695 0.695 0 0 0 35.769 1.934 Q 35.784 1.897 35.8 1.85 Q 35.825 1.775 35.85 1.725 Q 35.85 1.625 35.95 1.475 Q 36.155 1.188 36.494 0.885 A 5.826 5.826 0 0 1 36.65 0.75 A 3.221 3.221 0 0 1 36.971 0.51 Q 37.271 0.316 37.55 0.25 Q 37.619 0.233 37.711 0.216 A 4.808 4.808 0 0 1 37.8 0.2 Q 37.95 0.175 38.15 0.15 A 3.441 3.441 0 0 1 38.332 0.123 Q 38.631 0.086 38.825 0.125 A 0.409 0.409 0 0 0 38.882 0.139 Q 38.913 0.145 38.948 0.147 A 1.021 1.021 0 0 0 39.025 0.15 A 0.092 0.092 0 0 1 39.077 0.164 Q 39.113 0.189 39.122 0.253 A 0.346 0.346 0 0 1 39.125 0.3 A 0.64 0.64 0 0 1 38.937 0.428 Q 38.833 0.476 38.7 0.5 A 1.613 1.613 0 0 1 38.559 0.52 Q 38.372 0.537 38.225 0.5 Q 38 0.45 37.775 0.5 Q 37.625 0.55 37.463 0.638 Q 37.3 0.725 37.125 0.85 A 3.01 3.01 0 0 0 36.831 1.106 A 2.266 2.266 0 0 0 36.6 1.375 Q 36.475 1.55 36.35 1.713 Q 36.225 1.875 36.1 2.05 A 2.414 2.414 0 0 0 35.92 2.346 A 2.768 2.768 0 0 0 35.875 2.438 Q 35.775 2.65 35.675 2.875 L 35.625 3.025 A 0.341 0.341 0 0 1 35.589 3.101 A 0.289 0.289 0 0 1 35.55 3.15 A 0.472 0.472 0 0 1 35.525 3.299 Q 35.5 3.375 35.475 3.425 A 0.869 0.869 0 0 0 35.457 3.484 Q 35.436 3.568 35.444 3.623 A 0.155 0.155 0 0 0 35.45 3.65 A 0.335 0.335 0 0 1 35.446 3.698 Q 35.439 3.749 35.417 3.823 A 1.805 1.805 0 0 1 35.4 3.875 A 0.263 0.263 0 0 1 35.381 3.907 Q 35.359 3.938 35.322 3.977 A 1.13 1.13 0 0 1 35.3 4 L 35.2 4.15 A 0.596 0.596 0 0 0 35.085 4.378 A 0.583 0.583 0 0 0 35.075 4.425 A 2.991 2.991 0 0 1 35.053 4.508 Q 35.043 4.545 35.032 4.578 A 1.683 1.683 0 0 1 35.025 4.6 Q 35 4.675 34.975 4.725 Q 34.925 4.875 34.9 5.025 L 34.85 5.325 A 4.334 4.334 0 0 1 34.846 5.514 A 3.456 3.456 0 0 1 34.837 5.65 Q 34.825 5.8 34.8 5.925 A 0.136 0.136 0 0 0 34.79 5.954 Q 34.775 6.019 34.775 6.175 L 34.713 6.238 Q 34.675 6.275 34.6 6.325 A 0.444 0.444 0 0 0 34.555 6.36 Q 34.491 6.416 34.4 6.525 Q 34.258 6.708 34.215 6.792 A 0.243 0.243 0 0 0 34.2 6.825 L 34.1 7.1 Q 34.029 7.336 34.047 7.371 A 0.014 0.014 0 0 0 34.05 7.375 A 0.08 0.08 0 0 1 34.061 7.39 Q 34.085 7.43 34.125 7.55 A 0.193 0.193 0 0 1 34.153 7.602 Q 34.179 7.676 34.133 7.761 A 0.348 0.348 0 0 1 34.125 7.775 A 0.922 0.922 0 0 1 34.094 7.833 Q 34.077 7.861 34.06 7.884 A 0.367 0.367 0 0 1 34.025 7.925 A 2.781 2.781 0 0 1 33.974 7.975 Q 33.889 8.055 33.85 8.075 Q 33.85 8.675 33.65 9.2 L 33.275 10.2 Q 33.232 10.33 33.226 10.385 A 0.145 0.145 0 0 0 33.225 10.4 A 1.446 1.446 0 0 1 33.223 10.478 Q 33.218 10.571 33.2 10.625 A 1.25 1.25 0 0 0 33.144 10.806 A 1.508 1.508 0 0 0 33.125 10.9 Q 33.1 11.05 33.05 11.2 L 32.9 11.825 L 32.825 12.075 Q 32.825 12.192 32.781 12.331 A 1.236 1.236 0 0 1 32.775 12.35 L 32.8 12.35 L 32.8 12.325 A 1.348 1.348 0 0 0 32.894 12.22 Q 32.94 12.163 32.986 12.096 A 2.288 2.288 0 0 0 33 12.075 A 2.101 2.101 0 0 1 33.063 11.986 A 1.757 1.757 0 0 1 33.1 11.938 Q 33.15 11.875 33.2 11.825 L 33.775 11.4 Q 33.95 11.275 34.088 11.163 Q 34.225 11.05 34.35 10.95 Q 34.495 10.853 34.546 10.804 A 0.307 0.307 0 0 0 34.55 10.8 Q 34.618 10.732 34.747 10.644 A 2.938 2.938 0 0 1 34.775 10.625 Q 34.875 10.525 35.05 10.475 A 0.625 0.625 0 0 0 35.318 10.368 A 0.772 0.772 0 0 0 35.375 10.325 A 0.866 0.866 0 0 1 35.525 10.229 Q 35.6 10.192 35.688 10.163 Q 35.875 10.1 36.075 10.05 Q 36.15 10.025 36.225 10.013 Q 36.3 10 36.375 10 A 0.83 0.83 0 0 1 36.804 10.121 A 1.019 1.019 0 0 1 36.85 10.15 Q 36.989 10.243 37.064 10.314 A 0.684 0.684 0 0 1 37.075 10.325 A 0.509 0.509 0 0 1 37.153 10.402 Q 37.202 10.462 37.22 10.53 A 0.315 0.315 0 0 1 37.225 10.55 L 37.225 10.725 Q 37.225 10.746 37.242 10.766 A 0.124 0.124 0 0 0 37.25 10.775 A 0.113 0.113 0 0 1 37.263 10.79 Q 37.269 10.799 37.272 10.808 A 0.052 0.052 0 0 1 37.275 10.825 A 0.439 0.439 0 0 0 37.256 10.845 Q 37.229 10.876 37.225 10.895 A 0.029 0.029 0 0 0 37.225 10.9 A 0.072 0.072 0 0 0 37.205 10.902 Q 37.183 10.909 37.177 10.931 A 0.074 0.074 0 0 0 37.175 10.95 L 37.125 11.1 A 0.185 0.185 0 0 1 37.114 11.166 A 0.166 0.166 0 0 1 37.075 11.225 A 0.218 0.218 0 0 1 37.055 11.267 Q 37.013 11.338 36.9 11.45 A 0.429 0.429 0 0 1 36.832 11.505 A 0.558 0.558 0 0 1 36.775 11.537 Q 36.7 11.575 36.65 11.625 A 0.668 0.668 0 0 0 36.477 11.748 A 0.626 0.626 0 0 0 36.475 11.75 A 1.464 1.464 0 0 1 36.383 11.834 A 1.874 1.874 0 0 1 36.3 11.9 A 2.29 2.29 0 0 1 36.036 12.094 A 2.714 2.714 0 0 1 35.9 12.175 L 35.65 12.4 A 0.824 0.824 0 0 1 35.548 12.488 Q 35.489 12.53 35.43 12.553 A 0.404 0.404 0 0 1 35.35 12.575 L 35.375 12.6 Q 35.475 12.7 35.65 12.75 A 2.99 2.99 0 0 1 35.733 12.772 Q 35.77 12.782 35.803 12.793 A 1.683 1.683 0 0 1 35.825 12.8 Q 35.9 12.825 35.95 12.85 A 1.082 1.082 0 0 1 36.091 12.934 A 0.836 0.836 0 0 1 36.2 13.025 Q 36.273 13.098 36.293 13.237 A 0.804 0.804 0 0 1 36.3 13.35 L 36.25 13.35 A 1.827 1.827 0 0 1 36.227 13.647 Q 36.201 13.806 36.144 13.935 A 0.891 0.891 0 0 1 36.05 14.1 A 3.457 3.457 0 0 0 35.676 14.591 A 3.15 3.15 0 0 0 35.625 14.675 A 0.996 0.996 0 0 0 35.6 14.701 Q 35.564 14.74 35.554 14.761 A 0.034 0.034 0 0 0 35.55 14.775 A 0.15 0.15 0 0 0 35.519 14.821 A 0.185 0.185 0 0 0 35.513 14.838 A 0.17 0.17 0 0 1 35.494 14.876 A 0.144 0.144 0 0 1 35.475 14.9 Q 35.452 14.946 35.461 15.002 A 0.228 0.228 0 0 0 35.463 15.013 A 0.71 0.71 0 0 1 35.471 15.065 Q 35.474 15.092 35.475 15.116 A 0.414 0.414 0 0 1 35.475 15.125 Q 35.525 15.2 35.525 15.25 L 35.525 15.325 Q 35.546 15.411 35.586 15.515 A 2.473 2.473 0 0 0 35.6 15.55 L 35.7 15.8 Q 35.825 16.075 36.175 16 Q 36.325 15.95 36.475 15.85 A 0.934 0.934 0 0 0 36.588 15.775 Q 36.677 15.705 36.725 15.625 A 0.623 0.623 0 0 1 36.765 15.556 A 0.739 0.739 0 0 1 36.788 15.525 A 0.694 0.694 0 0 0 36.832 15.458 A 0.588 0.588 0 0 0 36.85 15.425 A 0.465 0.465 0 0 1 36.898 15.358 Q 36.928 15.324 36.961 15.303 A 0.216 0.216 0 0 1 37.025 15.275 A 0.169 0.169 0 0 0 37.145 15.325 A 0.221 0.221 0 0 0 37.15 15.325 A 0.055 0.055 0 0 1 37.161 15.343 Q 37.175 15.376 37.175 15.45 L 37.075 15.55 A 0.48 0.48 0 0 0 37.036 15.594 Q 37.017 15.618 37.004 15.643 A 0.286 0.286 0 0 0 37 15.65 A 0.304 0.304 0 0 1 36.971 15.722 Q 36.936 15.786 36.866 15.859 A 1.122 1.122 0 0 1 36.85 15.875 Q 36.8 15.95 36.725 16 Q 36.65 16.025 36.575 16.1 Q 36.555 16.12 36.551 16.174 A 0.371 0.371 0 0 0 36.55 16.2 L 36.55 16.225 A 0.055 0.055 0 0 1 36.544 16.25 Q 36.54 16.258 36.533 16.266 A 0.124 0.124 0 0 1 36.525 16.275 A 0.735 0.735 0 0 1 36.41 16.384 Q 36.348 16.432 36.269 16.477 A 1.796 1.796 0 0 1 36.125 16.55 A 2.152 2.152 0 0 1 35.999 16.608 Q 35.935 16.635 35.877 16.654 A 1.236 1.236 0 0 1 35.85 16.663 A 1.559 1.559 0 0 0 35.717 16.709 A 1.235 1.235 0 0 0 35.625 16.75 A 2.06 2.06 0 0 1 35.516 16.774 A 1.634 1.634 0 0 1 35.438 16.788 A 1.285 1.285 0 0 1 35.343 16.798 A 1.004 1.004 0 0 1 35.275 16.8 Q 35.1 16.8 34.95 16.725 Q 34.675 16.575 34.55 16.275 Q 34.525 16.2 34.513 16.125 Q 34.5 16.05 34.5 15.975 A 0.654 0.654 0 0 1 34.514 15.836 Q 34.535 15.738 34.589 15.665 A 0.409 0.409 0 0 1 34.6 15.65 Q 34.7 15.525 34.788 15.388 Q 34.875 15.25 34.925 15.125 Q 34.925 15.05 34.975 14.85 Q 35.05 14.65 35.05 14.475 A 0.653 0.653 0 0 0 35.099 14.345 A 0.563 0.563 0 0 0 35.112 14.275 Q 35.125 14.175 35.15 14.075 A 0.933 0.933 0 0 0 35.207 13.868 A 0.853 0.853 0 0 0 35.212 13.825 Q 35.225 13.7 35.25 13.575 A 0.857 0.857 0 0 0 35.191 13.255 A 0.812 0.812 0 0 0 35.125 13.125 Q 35.079 13.079 34.925 13.011 A 2.568 2.568 0 0 0 34.9 13 A 0.432 0.432 0 0 0 34.719 12.955 Q 34.666 12.954 34.609 12.963 A 0.716 0.716 0 0 0 34.55 12.975 A 0.48 0.48 0 0 1 34.506 13.014 Q 34.482 13.033 34.457 13.046 A 0.286 0.286 0 0 1 34.45 13.05 A 0.039 0.039 0 0 1 34.444 13.071 Q 34.438 13.081 34.425 13.088 Q 34.4 13.1 34.375 13.075 Z M 20.625 16.6 L 20.55 16.525 Q 20.55 16.484 20.516 16.442 A 0.249 0.249 0 0 0 20.5 16.425 Q 20.5 16.034 20.595 15.81 A 0.761 0.761 0 0 1 20.6 15.8 L 20.825 15.25 A 2.989 2.989 0 0 1 20.847 15.167 Q 20.857 15.13 20.868 15.097 A 1.683 1.683 0 0 1 20.875 15.075 A 1.913 1.913 0 0 0 20.897 15.005 Q 20.907 14.968 20.918 14.928 A 3.333 3.333 0 0 0 20.925 14.9 A 1.003 1.003 0 0 1 20.953 14.808 A 0.734 0.734 0 0 1 20.988 14.725 A 1.152 1.152 0 0 0 21.047 14.584 A 1.058 1.058 0 0 0 21.05 14.575 A 0.429 0.429 0 0 0 21.105 14.507 A 0.558 0.558 0 0 0 21.137 14.45 Q 21.175 14.375 21.225 14.325 A 1.982 1.982 0 0 0 21.298 14.207 Q 21.332 14.148 21.357 14.092 A 1.054 1.054 0 0 0 21.375 14.05 A 1.304 1.304 0 0 0 21.401 13.961 Q 21.413 13.916 21.419 13.876 A 0.519 0.519 0 0 0 21.425 13.8 Q 21.425 13.725 21.438 13.65 Q 21.45 13.575 21.475 13.5 Q 21.525 13.325 21.538 13.138 A 6.568 6.568 0 0 1 21.563 12.849 A 7.295 7.295 0 0 1 21.575 12.75 Q 21.6 12.55 21.6 12.338 Q 21.6 12.125 21.625 11.925 A 0.13 0.13 0 0 1 21.568 11.896 Q 21.527 11.858 21.525 11.781 A 0.304 0.304 0 0 1 21.525 11.775 L 21.525 10.6 L 21.325 10.4 A 0.225 0.225 0 0 0 21.295 10.374 Q 21.276 10.362 21.258 10.355 A 0.105 0.105 0 0 0 21.225 10.35 Q 21.18 10.35 21.135 10.289 A 0.354 0.354 0 0 1 21.125 10.275 A 0.026 0.026 0 0 1 21.119 10.264 Q 21.109 10.231 21.145 10.137 A 1.045 1.045 0 0 1 21.15 10.125 A 1.022 1.022 0 0 1 21.19 10.087 Q 21.239 10.043 21.275 10.025 L 21.425 9.95 L 22.075 9.95 A 0.241 0.241 0 0 1 22.131 9.93 A 0.204 0.204 0 0 1 22.175 9.925 A 0.213 0.213 0 0 0 22.252 9.91 A 0.261 0.261 0 0 0 22.275 9.9 A 0.158 0.158 0 0 1 22.306 9.893 Q 22.376 9.885 22.492 9.922 A 1.025 1.025 0 0 1 22.5 9.925 A 0.227 0.227 0 0 1 22.669 10.043 Q 22.693 10.084 22.71 10.139 A 0.67 0.67 0 0 1 22.725 10.2 A 1.227 1.227 0 0 1 22.744 10.293 Q 22.752 10.342 22.759 10.398 A 2.269 2.269 0 0 1 22.762 10.438 A 3.028 3.028 0 0 1 22.774 10.629 A 2.608 2.608 0 0 1 22.775 10.7 L 22.775 10.95 Q 22.703 10.974 22.677 11.045 A 0.194 0.194 0 0 0 22.675 11.05 L 22.675 11.2 A 0.472 0.472 0 0 0 22.7 11.349 A 0.472 0.472 0 0 1 22.725 11.498 A 0.458 0.458 0 0 1 22.725 11.5 L 22.725 11.65 L 22.825 11.7 L 22.925 11.7 A 3.236 3.236 0 0 1 23.045 11.572 Q 23.166 11.45 23.265 11.382 A 0.88 0.88 0 0 1 23.275 11.375 A 1.272 1.272 0 0 1 23.342 11.313 A 1.532 1.532 0 0 1 23.388 11.275 A 0.452 0.452 0 0 0 23.426 11.241 Q 23.445 11.222 23.458 11.203 A 0.213 0.213 0 0 0 23.475 11.175 L 23.575 11.075 L 23.675 10.975 L 23.788 10.863 A 1.099 1.099 0 0 0 23.836 10.81 Q 23.862 10.78 23.891 10.745 A 2.245 2.245 0 0 0 23.925 10.7 A 2.796 2.796 0 0 1 24.045 10.588 A 3.166 3.166 0 0 1 24.087 10.55 A 3.58 3.58 0 0 1 24.226 10.438 A 4.043 4.043 0 0 1 24.275 10.4 A 2.876 2.876 0 0 1 24.462 10.27 A 2.639 2.639 0 0 1 24.475 10.263 A 2.418 2.418 0 0 1 24.675 10.15 L 24.925 10.05 Q 25.05 10 25.175 10 L 25.375 10 A 0.417 0.417 0 0 1 25.446 9.973 A 0.511 0.511 0 0 1 25.488 9.963 A 0.484 0.484 0 0 0 25.557 9.943 A 0.398 0.398 0 0 0 25.6 9.925 A 0.239 0.239 0 0 0 25.646 9.92 Q 25.677 9.914 25.713 9.9 Q 25.764 9.879 25.79 9.859 A 0.115 0.115 0 0 0 25.8 9.85 A 0.864 0.864 0 0 1 26.031 9.88 A 0.733 0.733 0 0 1 26.2 9.95 Q 26.425 10.075 26.45 10.175 L 26.525 10.475 L 26.525 10.663 Q 26.525 10.75 26.475 10.8 Q 26.4 11 26.275 11.2 A 4.99 4.99 0 0 0 26.201 11.355 A 5.76 5.76 0 0 0 26.175 11.413 Q 26.125 11.525 26.075 11.65 Q 26.053 11.672 26.013 11.75 A 1.941 1.941 0 0 0 26 11.775 A 1.759 1.759 0 0 1 25.979 11.815 Q 25.95 11.869 25.932 11.892 A 0.103 0.103 0 0 1 25.925 11.9 A 0.113 0.113 0 0 0 25.912 11.915 Q 25.886 11.953 25.917 11.991 A 0.124 0.124 0 0 0 25.925 12 A 0.113 0.113 0 0 1 25.938 12.015 Q 25.944 12.024 25.947 12.033 A 0.052 0.052 0 0 1 25.95 12.05 A 0.055 0.055 0 0 0 25.956 12.075 Q 25.96 12.083 25.967 12.091 A 0.124 0.124 0 0 0 25.975 12.1 A 0.824 0.824 0 0 0 25.887 12.202 Q 25.845 12.261 25.822 12.32 A 0.404 0.404 0 0 0 25.8 12.4 L 25.7 12.8 Q 25.675 12.975 25.613 13.125 A 2.805 2.805 0 0 0 25.532 13.343 A 3.326 3.326 0 0 0 25.5 13.45 A 7.005 7.005 0 0 0 25.432 13.705 A 6.14 6.14 0 0 0 25.412 13.788 A 6.561 6.561 0 0 1 25.349 14.038 A 7.475 7.475 0 0 1 25.325 14.125 A 0.168 0.168 0 0 0 25.313 14.158 Q 25.304 14.193 25.301 14.246 A 1.006 1.006 0 0 0 25.3 14.3 Q 25.3 14.386 25.309 14.453 A 0.749 0.749 0 0 0 25.312 14.475 Q 25.325 14.55 25.325 14.625 L 25.325 14.95 L 25.325 15.15 Q 25.325 15.25 25.35 15.35 L 25.425 15.675 A 0.319 0.319 0 0 0 25.455 15.741 Q 25.478 15.778 25.509 15.799 A 0.16 0.16 0 0 0 25.6 15.825 Q 25.75 15.725 25.825 15.7 A 0.429 0.429 0 0 1 25.893 15.645 A 0.558 0.558 0 0 1 25.95 15.613 Q 26.025 15.575 26.075 15.525 A 0.439 0.439 0 0 0 26.094 15.505 Q 26.121 15.474 26.125 15.455 A 0.029 0.029 0 0 0 26.125 15.45 L 26.125 15.425 A 0.055 0.055 0 0 1 26.131 15.4 Q 26.135 15.392 26.142 15.384 A 0.124 0.124 0 0 1 26.15 15.375 L 26.45 15.075 A 0.91 0.91 0 0 1 26.504 15.025 Q 26.561 14.977 26.608 14.957 A 0.219 0.219 0 0 1 26.625 14.95 Q 26.725 14.875 26.775 14.75 L 26.8 14.775 A 0.101 0.101 0 0 1 26.821 14.809 Q 26.85 14.884 26.85 15.075 L 26.775 15.175 L 26.7 15.325 Q 26.7 15.349 26.51 15.54 A 8.877 8.877 0 0 1 26.5 15.55 L 26.25 15.8 L 26.2 15.8 L 26.025 15.9 L 25.85 16.025 A 0.213 0.213 0 0 1 25.835 16.102 A 0.261 0.261 0 0 1 25.825 16.125 A 0.652 0.652 0 0 0 25.812 16.169 Q 25.806 16.192 25.803 16.212 A 0.259 0.259 0 0 0 25.8 16.25 Q 25.75 16.325 25.6 16.425 A 1.982 1.982 0 0 1 25.482 16.498 Q 25.423 16.532 25.367 16.557 A 1.054 1.054 0 0 1 25.325 16.575 A 0.236 0.236 0 0 1 25.251 16.587 A 0.236 0.236 0 0 1 25.175 16.575 A 0.961 0.961 0 0 1 25.129 16.55 A 0.698 0.698 0 0 1 25.088 16.525 A 0.694 0.694 0 0 0 25.047 16.5 A 0.957 0.957 0 0 0 25.001 16.475 Q 24.873 16.439 24.78 16.403 A 1.44 1.44 0 0 1 24.713 16.375 A 9.646 9.646 0 0 1 24.66 16.352 Q 24.591 16.32 24.554 16.302 A 1.183 1.183 0 0 1 24.55 16.3 A 0.196 0.196 0 0 1 24.484 16.252 Q 24.392 16.157 24.3 15.9 A 0.078 0.078 0 0 1 24.281 15.869 Q 24.277 15.856 24.276 15.841 A 0.176 0.176 0 0 1 24.275 15.825 Q 24.275 15.775 24.225 15.675 A 1.259 1.259 0 0 1 24.228 15.584 Q 24.237 15.457 24.275 15.4 A 0.772 0.772 0 0 1 24.297 15.35 Q 24.336 15.27 24.375 15.25 Q 24.45 15.2 24.5 15.125 Q 24.5 15.036 24.52 14.987 A 0.155 0.155 0 0 1 24.525 14.975 L 24.525 14.825 Q 24.55 14.775 24.563 14.738 A 0.17 0.17 0 0 1 24.581 14.699 A 0.144 0.144 0 0 1 24.6 14.675 A 0.022 0.022 0 0 0 24.613 14.67 Q 24.636 14.652 24.672 14.58 A 1.078 1.078 0 0 0 24.675 14.575 Q 24.708 14.475 24.708 14.375 A 0.607 0.607 0 0 0 24.7 14.275 A 0.607 0.607 0 0 1 24.692 14.175 Q 24.692 14.076 24.724 13.977 A 0.595 0.595 0 0 1 24.725 13.975 L 24.775 13.825 L 24.825 13.675 L 24.975 13.375 A 0.169 0.169 0 0 0 25.025 13.255 A 0.221 0.221 0 0 0 25.025 13.25 A 0.439 0.439 0 0 0 25.044 13.23 Q 25.071 13.199 25.075 13.18 A 0.029 0.029 0 0 0 25.075 13.175 Q 25.075 13.154 25.092 13.134 A 0.124 0.124 0 0 1 25.1 13.125 L 25.1 12.7 L 25.275 12.525 L 25.45 12.3 L 25.45 11.8 A 0.642 0.642 0 0 1 25.35 11.575 Q 25.328 11.485 25.325 11.381 A 1.173 1.173 0 0 1 25.325 11.35 Q 25.325 11.216 25.318 11.111 A 2.07 2.07 0 0 0 25.312 11.05 Q 25.3 10.925 25.275 10.825 Q 25.25 10.725 25.275 10.625 Q 25.275 10.57 25.248 10.502 A 0.634 0.634 0 0 0 25.225 10.45 Q 25.156 10.336 25.004 10.389 A 0.447 0.447 0 0 0 24.975 10.4 Q 24.886 10.4 24.837 10.42 A 0.155 0.155 0 0 0 24.825 10.425 L 24.725 10.475 Q 24.4 10.65 24.15 10.9 L 23.65 11.4 A 8.725 8.725 0 0 0 23.307 11.762 Q 23.105 11.989 22.95 12.2 L 22.85 12.3 Q 22.753 12.397 22.726 12.447 A 0.148 0.148 0 0 0 22.725 12.45 Q 22.725 12.5 22.7 12.525 L 22.7 12.575 A 0.922 0.922 0 0 1 22.669 12.633 Q 22.652 12.661 22.635 12.684 A 0.367 0.367 0 0 1 22.6 12.725 A 0.169 0.169 0 0 1 22.593 12.774 A 0.144 0.144 0 0 1 22.575 12.812 A 0.694 0.694 0 0 0 22.55 12.853 A 0.957 0.957 0 0 0 22.525 12.899 L 22.425 13 A 0.263 0.263 0 0 0 22.393 13.019 Q 22.362 13.041 22.323 13.078 A 1.13 1.13 0 0 0 22.3 13.1 L 22.125 13.3 A 1.357 1.357 0 0 0 22.063 13.379 Q 22.007 13.458 21.984 13.52 A 0.292 0.292 0 0 0 21.975 13.55 A 0.695 0.695 0 0 0 21.956 13.591 Q 21.941 13.628 21.925 13.675 Q 21.9 13.75 21.875 13.8 Q 21.875 13.9 21.825 14.05 A 2.055 2.055 0 0 0 21.715 14.367 A 2.499 2.499 0 0 0 21.675 14.55 L 21.525 15.1 A 0.426 0.426 0 0 0 21.513 15.185 Q 21.51 15.251 21.525 15.325 A 0.241 0.241 0 0 1 21.545 15.381 A 0.204 0.204 0 0 1 21.55 15.425 A 0.213 0.213 0 0 0 21.565 15.502 A 0.261 0.261 0 0 0 21.575 15.525 L 21.575 15.725 A 0.22 0.22 0 0 1 21.593 15.777 Q 21.598 15.802 21.6 15.83 A 0.421 0.421 0 0 1 21.6 15.85 A 0.551 0.551 0 0 0 21.604 15.915 Q 21.61 15.966 21.625 16.025 A 3.223 3.223 0 0 0 21.626 16.116 Q 21.63 16.251 21.646 16.312 A 0.214 0.214 0 0 0 21.65 16.325 A 0.48 0.48 0 0 0 21.611 16.369 Q 21.592 16.393 21.579 16.418 A 0.286 0.286 0 0 0 21.575 16.425 A 0.215 0.215 0 0 1 21.564 16.444 Q 21.545 16.475 21.525 16.475 A 0.041 0.041 0 0 1 21.506 16.492 Q 21.449 16.52 21.25 16.5 A 0.457 0.457 0 0 1 21.148 16.575 Q 21.066 16.621 20.95 16.65 A 0.22 0.22 0 0 1 20.898 16.668 Q 20.873 16.673 20.845 16.675 A 0.421 0.421 0 0 1 20.825 16.675 A 0.338 0.338 0 0 1 20.738 16.664 A 0.246 0.246 0 0 1 20.625 16.6 Z M 44.95 16.6 L 44.875 16.525 Q 44.875 16.484 44.841 16.442 A 0.249 0.249 0 0 0 44.825 16.425 Q 44.825 16.034 44.92 15.81 A 0.761 0.761 0 0 1 44.925 15.8 L 45.15 15.25 A 2.989 2.989 0 0 1 45.172 15.167 Q 45.182 15.13 45.193 15.097 A 1.683 1.683 0 0 1 45.2 15.075 A 1.913 1.913 0 0 0 45.222 15.005 Q 45.232 14.968 45.243 14.928 A 3.333 3.333 0 0 0 45.25 14.9 A 1.003 1.003 0 0 1 45.278 14.808 A 0.734 0.734 0 0 1 45.313 14.725 A 1.152 1.152 0 0 0 45.372 14.584 A 1.058 1.058 0 0 0 45.375 14.575 A 0.429 0.429 0 0 0 45.43 14.507 A 0.558 0.558 0 0 0 45.462 14.45 Q 45.5 14.375 45.55 14.325 A 1.982 1.982 0 0 0 45.623 14.207 Q 45.657 14.148 45.682 14.092 A 1.054 1.054 0 0 0 45.7 14.05 A 1.304 1.304 0 0 0 45.726 13.961 Q 45.738 13.916 45.744 13.876 A 0.519 0.519 0 0 0 45.75 13.8 Q 45.75 13.725 45.763 13.65 Q 45.775 13.575 45.8 13.5 Q 45.85 13.325 45.863 13.138 A 6.568 6.568 0 0 1 45.888 12.849 A 7.295 7.295 0 0 1 45.9 12.75 Q 45.925 12.55 45.925 12.338 Q 45.925 12.125 45.95 11.925 A 0.13 0.13 0 0 1 45.893 11.896 Q 45.852 11.858 45.85 11.781 A 0.304 0.304 0 0 1 45.85 11.775 L 45.85 10.6 L 45.65 10.4 A 0.225 0.225 0 0 0 45.62 10.374 Q 45.601 10.362 45.583 10.355 A 0.105 0.105 0 0 0 45.55 10.35 Q 45.505 10.35 45.46 10.289 A 0.354 0.354 0 0 1 45.45 10.275 A 0.026 0.026 0 0 1 45.444 10.264 Q 45.434 10.231 45.47 10.137 A 1.045 1.045 0 0 1 45.475 10.125 A 1.022 1.022 0 0 1 45.515 10.087 Q 45.564 10.043 45.6 10.025 L 45.75 9.95 L 46.4 9.95 A 0.241 0.241 0 0 1 46.456 9.93 A 0.204 0.204 0 0 1 46.5 9.925 A 0.213 0.213 0 0 0 46.577 9.91 A 0.261 0.261 0 0 0 46.6 9.9 A 0.158 0.158 0 0 1 46.631 9.893 Q 46.701 9.885 46.817 9.922 A 1.025 1.025 0 0 1 46.825 9.925 A 0.227 0.227 0 0 1 46.994 10.043 Q 47.018 10.084 47.035 10.139 A 0.67 0.67 0 0 1 47.05 10.2 A 1.227 1.227 0 0 1 47.069 10.293 Q 47.077 10.342 47.084 10.398 A 2.269 2.269 0 0 1 47.087 10.438 A 3.028 3.028 0 0 1 47.099 10.629 A 2.608 2.608 0 0 1 47.1 10.7 L 47.1 10.95 Q 47.028 10.974 47.002 11.045 A 0.194 0.194 0 0 0 47 11.05 L 47 11.2 A 0.472 0.472 0 0 0 47.025 11.349 A 0.472 0.472 0 0 1 47.05 11.498 A 0.458 0.458 0 0 1 47.05 11.5 L 47.05 11.65 L 47.15 11.7 L 47.25 11.7 A 3.236 3.236 0 0 1 47.37 11.572 Q 47.491 11.45 47.59 11.382 A 0.88 0.88 0 0 1 47.6 11.375 A 1.272 1.272 0 0 1 47.667 11.313 A 1.532 1.532 0 0 1 47.713 11.275 A 0.452 0.452 0 0 0 47.751 11.241 Q 47.77 11.222 47.783 11.203 A 0.213 0.213 0 0 0 47.8 11.175 L 47.9 11.075 L 48 10.975 L 48.113 10.863 A 1.099 1.099 0 0 0 48.161 10.81 Q 48.187 10.78 48.216 10.745 A 2.245 2.245 0 0 0 48.25 10.7 A 2.796 2.796 0 0 1 48.37 10.588 A 3.166 3.166 0 0 1 48.412 10.55 A 3.58 3.58 0 0 1 48.551 10.438 A 4.043 4.043 0 0 1 48.6 10.4 A 2.876 2.876 0 0 1 48.787 10.27 A 2.639 2.639 0 0 1 48.8 10.263 A 2.418 2.418 0 0 1 49 10.15 L 49.25 10.05 Q 49.375 10 49.5 10 L 49.7 10 A 0.417 0.417 0 0 1 49.771 9.973 A 0.511 0.511 0 0 1 49.813 9.963 A 0.484 0.484 0 0 0 49.882 9.943 A 0.398 0.398 0 0 0 49.925 9.925 A 0.239 0.239 0 0 0 49.971 9.92 Q 50.002 9.914 50.038 9.9 Q 50.089 9.879 50.115 9.859 A 0.115 0.115 0 0 0 50.125 9.85 A 0.864 0.864 0 0 1 50.356 9.88 A 0.733 0.733 0 0 1 50.525 9.95 Q 50.75 10.075 50.775 10.175 L 50.85 10.475 L 50.85 10.663 Q 50.85 10.75 50.8 10.8 Q 50.725 11 50.6 11.2 A 4.99 4.99 0 0 0 50.526 11.355 A 5.76 5.76 0 0 0 50.5 11.413 Q 50.45 11.525 50.4 11.65 Q 50.378 11.672 50.338 11.75 A 1.941 1.941 0 0 0 50.325 11.775 A 1.759 1.759 0 0 1 50.304 11.815 Q 50.275 11.869 50.257 11.892 A 0.103 0.103 0 0 1 50.25 11.9 A 0.113 0.113 0 0 0 50.237 11.915 Q 50.211 11.953 50.242 11.991 A 0.124 0.124 0 0 0 50.25 12 A 0.113 0.113 0 0 1 50.263 12.015 Q 50.269 12.024 50.272 12.033 A 0.052 0.052 0 0 1 50.275 12.05 A 0.055 0.055 0 0 0 50.281 12.075 Q 50.285 12.083 50.292 12.091 A 0.124 0.124 0 0 0 50.3 12.1 A 0.824 0.824 0 0 0 50.212 12.202 Q 50.17 12.261 50.147 12.32 A 0.404 0.404 0 0 0 50.125 12.4 L 50.025 12.8 Q 50 12.975 49.938 13.125 A 2.805 2.805 0 0 0 49.857 13.343 A 3.326 3.326 0 0 0 49.825 13.45 A 7.005 7.005 0 0 0 49.757 13.705 A 6.14 6.14 0 0 0 49.737 13.788 A 6.561 6.561 0 0 1 49.674 14.038 A 7.475 7.475 0 0 1 49.65 14.125 A 0.168 0.168 0 0 0 49.638 14.158 Q 49.629 14.193 49.626 14.246 A 1.006 1.006 0 0 0 49.625 14.3 Q 49.625 14.386 49.634 14.453 A 0.749 0.749 0 0 0 49.637 14.475 Q 49.65 14.55 49.65 14.625 L 49.65 14.95 L 49.65 15.15 Q 49.65 15.25 49.675 15.35 L 49.75 15.675 A 0.319 0.319 0 0 0 49.78 15.741 Q 49.803 15.778 49.834 15.799 A 0.16 0.16 0 0 0 49.925 15.825 Q 50.075 15.725 50.15 15.7 A 0.429 0.429 0 0 1 50.218 15.645 A 0.558 0.558 0 0 1 50.275 15.613 Q 50.35 15.575 50.4 15.525 A 0.439 0.439 0 0 0 50.419 15.505 Q 50.446 15.474 50.45 15.455 A 0.029 0.029 0 0 0 50.45 15.45 L 50.45 15.425 A 0.055 0.055 0 0 1 50.456 15.4 Q 50.46 15.392 50.467 15.384 A 0.124 0.124 0 0 1 50.475 15.375 L 50.775 15.075 A 0.91 0.91 0 0 1 50.829 15.025 Q 50.886 14.977 50.933 14.957 A 0.219 0.219 0 0 1 50.95 14.95 Q 51.05 14.875 51.1 14.75 L 51.125 14.775 A 0.101 0.101 0 0 1 51.146 14.809 Q 51.175 14.884 51.175 15.075 L 51.1 15.175 L 51.025 15.325 Q 51.025 15.349 50.835 15.54 A 8.877 8.877 0 0 1 50.825 15.55 L 50.575 15.8 L 50.525 15.8 L 50.35 15.9 L 50.175 16.025 A 0.213 0.213 0 0 1 50.16 16.102 A 0.261 0.261 0 0 1 50.15 16.125 A 0.652 0.652 0 0 0 50.137 16.169 Q 50.131 16.192 50.128 16.212 A 0.259 0.259 0 0 0 50.125 16.25 Q 50.075 16.325 49.925 16.425 A 1.982 1.982 0 0 1 49.807 16.498 Q 49.748 16.532 49.692 16.557 A 1.054 1.054 0 0 1 49.65 16.575 A 0.236 0.236 0 0 1 49.576 16.587 A 0.236 0.236 0 0 1 49.5 16.575 A 0.961 0.961 0 0 1 49.454 16.55 A 0.698 0.698 0 0 1 49.413 16.525 A 0.694 0.694 0 0 0 49.372 16.5 A 0.957 0.957 0 0 0 49.326 16.475 Q 49.198 16.439 49.105 16.403 A 1.44 1.44 0 0 1 49.038 16.375 A 9.646 9.646 0 0 1 48.985 16.352 Q 48.916 16.32 48.879 16.302 A 1.183 1.183 0 0 1 48.875 16.3 A 0.196 0.196 0 0 1 48.809 16.252 Q 48.717 16.157 48.625 15.9 A 0.078 0.078 0 0 1 48.606 15.869 Q 48.602 15.856 48.601 15.841 A 0.176 0.176 0 0 1 48.6 15.825 Q 48.6 15.775 48.55 15.675 A 1.259 1.259 0 0 1 48.553 15.584 Q 48.562 15.457 48.6 15.4 A 0.772 0.772 0 0 1 48.622 15.35 Q 48.661 15.27 48.7 15.25 Q 48.775 15.2 48.825 15.125 Q 48.825 15.036 48.845 14.987 A 0.155 0.155 0 0 1 48.85 14.975 L 48.85 14.825 Q 48.875 14.775 48.888 14.738 A 0.17 0.17 0 0 1 48.906 14.699 A 0.144 0.144 0 0 1 48.925 14.675 A 0.022 0.022 0 0 0 48.938 14.67 Q 48.961 14.652 48.997 14.58 A 1.078 1.078 0 0 0 49 14.575 Q 49.033 14.475 49.033 14.375 A 0.607 0.607 0 0 0 49.025 14.275 A 0.607 0.607 0 0 1 49.017 14.175 Q 49.017 14.076 49.049 13.977 A 0.595 0.595 0 0 1 49.05 13.975 L 49.1 13.825 L 49.15 13.675 L 49.3 13.375 A 0.169 0.169 0 0 0 49.35 13.255 A 0.221 0.221 0 0 0 49.35 13.25 A 0.439 0.439 0 0 0 49.369 13.23 Q 49.396 13.199 49.4 13.18 A 0.029 0.029 0 0 0 49.4 13.175 Q 49.4 13.154 49.417 13.134 A 0.124 0.124 0 0 1 49.425 13.125 L 49.425 12.7 L 49.6 12.525 L 49.775 12.3 L 49.775 11.8 A 0.642 0.642 0 0 1 49.675 11.575 Q 49.653 11.485 49.65 11.381 A 1.173 1.173 0 0 1 49.65 11.35 Q 49.65 11.216 49.643 11.111 A 2.07 2.07 0 0 0 49.637 11.05 Q 49.625 10.925 49.6 10.825 Q 49.575 10.725 49.6 10.625 Q 49.6 10.57 49.573 10.502 A 0.634 0.634 0 0 0 49.55 10.45 Q 49.481 10.336 49.329 10.389 A 0.447 0.447 0 0 0 49.3 10.4 Q 49.211 10.4 49.162 10.42 A 0.155 0.155 0 0 0 49.15 10.425 L 49.05 10.475 Q 48.725 10.65 48.475 10.9 L 47.975 11.4 A 8.725 8.725 0 0 0 47.632 11.762 Q 47.43 11.989 47.275 12.2 L 47.175 12.3 Q 47.078 12.397 47.051 12.447 A 0.148 0.148 0 0 0 47.05 12.45 Q 47.05 12.5 47.025 12.525 L 47.025 12.575 A 0.922 0.922 0 0 1 46.994 12.633 Q 46.977 12.661 46.96 12.684 A 0.367 0.367 0 0 1 46.925 12.725 A 0.169 0.169 0 0 1 46.918 12.774 A 0.144 0.144 0 0 1 46.9 12.812 A 0.694 0.694 0 0 0 46.875 12.853 A 0.957 0.957 0 0 0 46.85 12.899 L 46.75 13 A 0.263 0.263 0 0 0 46.718 13.019 Q 46.687 13.041 46.648 13.078 A 1.13 1.13 0 0 0 46.625 13.1 L 46.45 13.3 A 1.357 1.357 0 0 0 46.388 13.379 Q 46.332 13.458 46.309 13.52 A 0.292 0.292 0 0 0 46.3 13.55 A 0.695 0.695 0 0 0 46.281 13.591 Q 46.266 13.628 46.25 13.675 Q 46.225 13.75 46.2 13.8 Q 46.2 13.9 46.15 14.05 A 2.055 2.055 0 0 0 46.04 14.367 A 2.499 2.499 0 0 0 46 14.55 L 45.85 15.1 A 0.426 0.426 0 0 0 45.838 15.185 Q 45.835 15.251 45.85 15.325 A 0.241 0.241 0 0 1 45.87 15.381 A 0.204 0.204 0 0 1 45.875 15.425 A 0.213 0.213 0 0 0 45.89 15.502 A 0.261 0.261 0 0 0 45.9 15.525 L 45.9 15.725 A 0.22 0.22 0 0 1 45.918 15.777 Q 45.923 15.802 45.925 15.83 A 0.421 0.421 0 0 1 45.925 15.85 A 0.551 0.551 0 0 0 45.929 15.915 Q 45.935 15.966 45.95 16.025 A 3.223 3.223 0 0 0 45.951 16.116 Q 45.955 16.251 45.971 16.312 A 0.214 0.214 0 0 0 45.975 16.325 A 0.48 0.48 0 0 0 45.936 16.369 Q 45.917 16.393 45.904 16.418 A 0.286 0.286 0 0 0 45.9 16.425 A 0.215 0.215 0 0 1 45.889 16.444 Q 45.87 16.475 45.85 16.475 A 0.041 0.041 0 0 1 45.831 16.492 Q 45.774 16.52 45.575 16.5 A 0.457 0.457 0 0 1 45.473 16.575 Q 45.391 16.621 45.275 16.65 A 0.22 0.22 0 0 1 45.223 16.668 Q 45.198 16.673 45.17 16.675 A 0.421 0.421 0 0 1 45.15 16.675 A 0.338 0.338 0 0 1 45.063 16.664 A 0.246 0.246 0 0 1 44.95 16.6 Z M 52.625 13.725 L 52.725 13.475 A 0.443 0.443 0 0 0 52.765 13.401 A 0.341 0.341 0 0 0 52.788 13.325 Q 52.8 13.25 52.825 13.2 L 52.825 12.9 L 52.875 12.75 L 52.925 12.6 L 52.975 12.45 L 53.025 12.3 L 53.025 11.975 Q 53.05 11.925 53.075 11.863 Q 53.1 11.8 53.125 11.75 Q 53.15 11.7 53.175 11.638 Q 53.2 11.575 53.225 11.525 Q 53.264 11.408 53.273 11.336 A 0.309 0.309 0 0 0 53.275 11.3 A 0.335 0.335 0 0 1 53.279 11.252 Q 53.286 11.201 53.308 11.127 A 1.805 1.805 0 0 1 53.325 11.075 L 53.325 11 A 0.258 0.258 0 0 1 53.328 10.963 Q 53.334 10.924 53.35 10.875 A 0.282 0.282 0 0 0 53.358 10.824 Q 53.363 10.739 53.325 10.625 A 0.1 0.1 0 0 0 53.256 10.558 Q 53.232 10.55 53.2 10.55 Q 53.179 10.55 53.066 10.514 A 5.217 5.217 0 0 1 53.025 10.5 Q 52.956 10.483 52.87 10.466 A 5.129 5.129 0 0 0 52.788 10.45 A 6.967 6.967 0 0 0 52.65 10.427 Q 52.578 10.415 52.498 10.403 A 11.524 11.524 0 0 0 52.475 10.4 A 0.638 0.638 0 0 1 52.33 10.385 Q 52.132 10.338 52.075 10.15 Q 52.153 10.111 52.186 10.072 A 0.115 0.115 0 0 0 52.2 10.05 A 0.169 0.169 0 0 0 52.249 10.043 A 0.144 0.144 0 0 0 52.287 10.025 Q 52.322 10.002 52.346 9.979 A 0.293 0.293 0 0 0 52.35 9.975 Q 52.5 9.925 52.55 9.95 A 0.158 0.158 0 0 0 52.581 9.957 Q 52.651 9.965 52.767 9.928 A 1.025 1.025 0 0 0 52.775 9.925 A 4.114 4.114 0 0 1 52.921 9.886 Q 53.01 9.864 53.088 9.85 Q 53.225 9.825 53.35 9.8 L 53.45 9.7 L 53.525 9.6 L 53.525 9.325 A 0.961 0.961 0 0 1 53.55 9.279 A 0.698 0.698 0 0 1 53.575 9.238 A 0.233 0.233 0 0 0 53.587 9.218 Q 53.598 9.197 53.6 9.181 A 0.055 0.055 0 0 0 53.6 9.175 A 0.296 0.296 0 0 0 53.622 9.151 Q 53.65 9.116 53.65 9.088 A 0.092 0.092 0 0 1 53.656 9.055 A 0.083 0.083 0 0 1 53.675 9.025 L 53.75 8.8 A 1.446 1.446 0 0 1 53.752 8.722 Q 53.757 8.629 53.775 8.575 L 53.775 7.675 A 0.055 0.055 0 0 0 53.769 7.65 Q 53.765 7.642 53.758 7.634 A 0.124 0.124 0 0 0 53.75 7.625 Q 53.73 7.625 53.726 7.609 A 0.037 0.037 0 0 1 53.725 7.6 A 0.607 0.607 0 0 1 53.697 7.536 Q 53.675 7.475 53.675 7.425 Q 53.675 7.325 53.725 7.225 A 1.246 1.246 0 0 0 53.862 7.144 A 1.478 1.478 0 0 0 53.925 7.1 A 1.388 1.388 0 0 1 54.059 7.011 A 1.176 1.176 0 0 1 54.125 6.975 A 0.607 0.607 0 0 1 54.189 6.947 Q 54.25 6.925 54.3 6.925 A 0.319 0.319 0 0 0 54.356 6.92 Q 54.387 6.915 54.411 6.903 A 0.148 0.148 0 0 0 54.45 6.875 L 54.875 6.875 A 1.022 1.022 0 0 1 54.913 6.915 Q 54.957 6.964 54.975 7 A 0.263 0.263 0 0 0 54.994 7.032 Q 55.016 7.063 55.053 7.102 A 1.13 1.13 0 0 0 55.075 7.125 A 2.245 2.245 0 0 1 55.069 7.298 A 1.935 1.935 0 0 1 55.063 7.363 Q 55.05 7.475 55.025 7.575 A 2.99 2.99 0 0 1 55.003 7.658 Q 54.993 7.695 54.982 7.728 A 1.683 1.683 0 0 1 54.975 7.75 A 1.913 1.913 0 0 0 54.953 7.82 Q 54.943 7.857 54.932 7.897 A 3.333 3.333 0 0 0 54.925 7.925 A 1.003 1.003 0 0 1 54.897 8.017 A 0.734 0.734 0 0 1 54.862 8.1 Q 54.825 8.175 54.8 8.275 Q 54.725 8.45 54.725 8.725 A 0.17 0.17 0 0 0 54.638 8.764 Q 54.583 8.813 54.576 8.919 A 0.479 0.479 0 0 0 54.575 8.95 A 0.808 0.808 0 0 0 54.545 9.043 Q 54.517 9.149 54.5 9.3 A 1.302 1.302 0 0 0 54.479 9.451 A 1.08 1.08 0 0 0 54.475 9.538 L 54.475 9.75 L 54.525 9.75 A 0.476 0.476 0 0 0 54.693 9.797 A 0.584 0.584 0 0 0 54.75 9.8 L 55.075 9.8 Q 55.2 9.8 55.35 9.813 A 3.582 3.582 0 0 0 55.537 9.823 A 4.487 4.487 0 0 0 55.675 9.825 L 55.85 9.825 A 2.245 2.245 0 0 0 56.023 9.819 A 1.935 1.935 0 0 0 56.088 9.813 Q 56.2 9.8 56.3 9.775 A 1.065 1.065 0 0 0 56.358 9.75 Q 56.419 9.721 56.455 9.693 A 0.23 0.23 0 0 0 56.475 9.675 L 56.675 9.6 L 56.725 9.675 A 0.078 0.078 0 0 1 56.744 9.706 Q 56.748 9.719 56.749 9.734 A 0.176 0.176 0 0 1 56.75 9.75 L 56.45 9.975 A 0.685 0.685 0 0 1 56.361 10.026 A 0.563 0.563 0 0 1 56.3 10.05 A 0.983 0.983 0 0 0 56.24 10.072 Q 56.207 10.086 56.171 10.103 A 2.008 2.008 0 0 0 56.125 10.125 Q 56.025 10.125 55.925 10.15 L 55.725 10.2 A 0.282 0.282 0 0 1 55.685 10.207 Q 55.609 10.215 55.55 10.175 A 0.116 0.116 0 0 0 55.515 10.151 Q 55.484 10.137 55.446 10.144 A 0.174 0.174 0 0 0 55.425 10.15 A 1.553 1.553 0 0 1 55.268 10.18 A 1.79 1.79 0 0 1 55.213 10.188 A 2.069 2.069 0 0 1 55.041 10.199 A 2.402 2.402 0 0 1 54.975 10.2 A 2.245 2.245 0 0 0 54.802 10.206 A 1.935 1.935 0 0 0 54.738 10.213 Q 54.625 10.225 54.525 10.25 A 0.236 0.236 0 0 1 54.451 10.262 A 0.236 0.236 0 0 1 54.375 10.25 Q 54.3 10.225 54.25 10.275 Q 54.15 10.35 54.1 10.475 A 0.59 0.59 0 0 1 53.976 10.749 A 0.658 0.658 0 0 1 53.975 10.75 A 3.777 3.777 0 0 0 53.882 10.914 A 4.656 4.656 0 0 0 53.825 11.025 L 53.675 11.325 Q 53.6 11.475 53.538 11.638 Q 53.475 11.8 53.425 11.975 L 53.425 12.325 A 0.8 0.8 0 0 1 53.377 12.453 Q 53.335 12.54 53.275 12.6 L 53.175 12.75 L 53.075 12.9 A 0.989 0.989 0 0 1 53.073 12.958 Q 53.069 13.038 53.05 13.075 Q 53.025 13.15 53.025 13.3 L 52.925 13.7 Q 52.9 13.8 52.875 13.913 Q 52.85 14.025 52.825 14.125 L 52.825 14.55 A 0.225 0.225 0 0 1 52.851 14.58 Q 52.863 14.599 52.87 14.617 A 0.105 0.105 0 0 1 52.875 14.65 A 0.046 0.046 0 0 1 52.901 14.657 Q 52.919 14.669 52.924 14.702 A 0.173 0.173 0 0 1 52.925 14.725 L 52.925 15.725 L 53 15.8 L 53.075 15.85 A 1.13 1.13 0 0 0 53.268 15.835 Q 53.372 15.816 53.455 15.777 A 0.536 0.536 0 0 0 53.575 15.7 A 3.806 3.806 0 0 0 53.718 15.588 A 3.368 3.368 0 0 0 53.763 15.55 Q 53.85 15.475 53.9 15.375 L 54.125 15.15 A 1.751 1.751 0 0 0 54.231 15.033 A 2.309 2.309 0 0 0 54.325 14.913 Q 54.425 14.775 54.525 14.675 L 54.6 14.6 Q 54.625 14.6 54.675 14.55 Q 54.725 14.5 54.763 14.438 A 0.44 0.44 0 0 0 54.791 14.381 Q 54.803 14.352 54.813 14.318 A 0.898 0.898 0 0 0 54.825 14.275 A 0.841 0.841 0 0 1 54.859 14.196 Q 54.899 14.115 54.946 14.078 A 0.142 0.142 0 0 1 55 14.05 L 55.05 14.1 L 55.05 14.225 A 0.373 0.373 0 0 1 55.046 14.278 Q 55.041 14.319 55.025 14.35 Q 55.025 14.45 54.975 14.55 Q 54.875 14.725 54.625 14.95 Q 54.4 15.125 54.225 15.325 A 0.981 0.981 0 0 1 54.161 15.435 A 0.801 0.801 0 0 1 54.113 15.5 A 1.812 1.812 0 0 0 54.026 15.613 A 1.609 1.609 0 0 0 54 15.65 A 0.668 0.668 0 0 1 53.877 15.823 A 0.626 0.626 0 0 1 53.875 15.825 A 0.667 0.667 0 0 0 53.75 15.999 Q 53.7 16.075 53.625 16.125 Q 53.548 16.182 53.501 16.24 A 0.436 0.436 0 0 0 53.475 16.275 Q 53.3 16.525 53.175 16.625 Q 53.065 16.68 52.901 16.695 A 1.417 1.417 0 0 1 52.775 16.7 A 1.26 1.26 0 0 1 52.561 16.683 Q 52.302 16.638 52.175 16.475 Q 52.11 16.388 52.044 16.074 A 5.184 5.184 0 0 1 52.025 15.975 Q 51.984 15.812 51.968 15.682 A 1.502 1.502 0 0 1 51.963 15.625 A 1.221 1.221 0 0 1 51.959 15.565 Q 51.955 15.462 51.972 15.387 A 0.453 0.453 0 0 1 51.975 15.375 A 1.139 1.139 0 0 1 52.033 15.234 A 1.251 1.251 0 0 1 52.038 15.225 A 1.152 1.152 0 0 0 52.097 15.084 A 1.06 1.06 0 0 0 52.1 15.075 A 0.685 0.685 0 0 0 52.151 14.986 A 0.563 0.563 0 0 0 52.175 14.925 L 52.225 14.775 A 5.818 5.818 0 0 1 52.292 14.614 A 6.907 6.907 0 0 1 52.338 14.513 Q 52.4 14.375 52.425 14.25 A 8.591 8.591 0 0 0 52.5 14.055 A 9.724 9.724 0 0 0 52.525 13.988 Q 52.575 13.85 52.625 13.725 Z M 17.95 16.675 L 17.8 16.6 A 0.127 0.127 0 0 1 17.759 16.626 Q 17.718 16.644 17.653 16.648 A 0.742 0.742 0 0 1 17.6 16.65 L 17.25 16.3 L 17.25 15.475 Q 17.27 15.455 17.274 15.401 A 0.371 0.371 0 0 0 17.275 15.375 A 0.353 0.353 0 0 1 17.276 15.343 Q 17.281 15.294 17.3 15.275 L 17.35 15.075 L 17.4 14.875 A 0.561 0.561 0 0 1 17.432 14.691 A 0.64 0.64 0 0 1 17.437 14.675 Q 17.475 14.575 17.5 14.475 A 3.669 3.669 0 0 1 17.589 14.219 Q 17.653 14.055 17.725 13.925 Q 17.9 13.675 17.9 13.325 L 17.875 13.325 Q 17.851 13.419 17.739 13.469 A 0.414 0.414 0 0 1 17.725 13.475 Q 17.625 13.55 17.55 13.65 A 1.759 1.759 0 0 1 17.529 13.69 Q 17.5 13.744 17.482 13.767 A 0.103 0.103 0 0 1 17.475 13.775 Q 17.475 13.825 17.425 13.925 L 17.125 14.375 A 4.556 4.556 0 0 0 17.012 14.532 A 5.123 5.123 0 0 0 16.975 14.587 Q 16.9 14.7 16.8 14.8 A 0.674 0.674 0 0 0 16.753 14.852 Q 16.73 14.881 16.707 14.915 A 1.144 1.144 0 0 0 16.7 14.925 A 0.893 0.893 0 0 1 16.636 15.009 A 1.141 1.141 0 0 1 16.575 15.075 L 16.3 15.35 A 0.337 0.337 0 0 1 16.274 15.373 Q 16.26 15.385 16.243 15.396 A 0.57 0.57 0 0 1 16.238 15.4 Q 16.212 15.417 16.181 15.445 A 0.935 0.935 0 0 0 16.15 15.475 Q 16.116 15.525 16.06 15.587 A 1.87 1.87 0 0 1 16 15.65 A 1.887 1.887 0 0 0 15.942 15.71 Q 15.884 15.773 15.85 15.825 A 0.337 0.337 0 0 1 15.824 15.848 Q 15.81 15.86 15.793 15.871 A 0.57 0.57 0 0 1 15.788 15.875 Q 15.762 15.892 15.731 15.92 A 0.935 0.935 0 0 0 15.7 15.95 L 15.55 16.15 Q 15.448 16.252 15.379 16.304 A 0.598 0.598 0 0 1 15.35 16.325 A 2.417 2.417 0 0 0 15.15 16.437 A 1.314 1.314 0 0 1 15.015 16.511 A 1.606 1.606 0 0 1 14.925 16.55 A 1.074 1.074 0 0 1 14.799 16.584 Q 14.72 16.6 14.65 16.6 A 0.784 0.784 0 0 1 14.571 16.596 A 0.614 0.614 0 0 1 14.513 16.587 Q 14.45 16.575 14.376 16.55 A 1.505 1.505 0 0 1 14.375 16.55 Q 14.275 16.525 14.225 16.425 Q 14.128 16.328 14.078 16.301 A 0.148 0.148 0 0 0 14.075 16.3 L 13.925 16.2 L 13.85 15.925 Q 13.85 15.85 13.838 15.775 Q 13.825 15.7 13.8 15.625 A 3.7 3.7 0 0 1 13.744 15.225 Q 13.725 15.013 13.725 14.775 A 4.398 4.398 0 0 1 13.733 14.506 A 3.48 3.48 0 0 1 13.75 14.313 A 2.736 2.736 0 0 1 13.786 14.085 A 2.145 2.145 0 0 1 13.825 13.925 A 0.695 0.695 0 0 0 13.844 13.884 Q 13.859 13.847 13.875 13.8 A 1.913 1.913 0 0 0 13.897 13.73 Q 13.907 13.693 13.918 13.653 A 3.333 3.333 0 0 0 13.925 13.625 A 0.709 0.709 0 0 1 13.937 13.491 A 0.62 0.62 0 0 1 13.95 13.438 A 1.327 1.327 0 0 1 13.966 13.386 Q 13.982 13.338 13.998 13.305 A 0.387 0.387 0 0 1 14 13.3 A 1.71 1.71 0 0 1 14.098 13.097 A 1.934 1.934 0 0 1 14.125 13.05 A 0.674 0.674 0 0 0 14.172 12.998 Q 14.195 12.969 14.218 12.935 A 1.144 1.144 0 0 0 14.225 12.925 Q 14.274 12.852 14.299 12.802 A 0.603 0.603 0 0 0 14.3 12.8 L 14.65 12.275 L 15.025 11.75 A 1.521 1.521 0 0 1 15.073 11.681 Q 15.126 11.612 15.17 11.573 A 0.298 0.298 0 0 1 15.2 11.55 L 15.3 11.45 L 15.4 11.35 A 4.315 4.315 0 0 1 15.679 11.006 A 5.283 5.283 0 0 1 15.875 10.8 A 2.033 2.033 0 0 1 16.119 10.572 Q 16.269 10.454 16.426 10.385 A 1.244 1.244 0 0 1 16.45 10.375 A 0.084 0.084 0 0 1 16.51 10.35 A 0.111 0.111 0 0 1 16.512 10.35 A 0.092 0.092 0 0 0 16.545 10.344 A 0.083 0.083 0 0 0 16.575 10.325 A 0.622 0.622 0 0 0 16.615 10.324 Q 16.68 10.32 16.7 10.3 A 0.488 0.488 0 0 1 16.735 10.284 Q 16.777 10.267 16.838 10.25 Q 16.925 10.225 17.025 10.2 A 2.088 2.088 0 0 1 17.119 10.167 Q 17.211 10.138 17.275 10.129 A 0.369 0.369 0 0 1 17.325 10.125 L 17.925 10.075 A 0.458 0.458 0 0 1 17.984 10.079 Q 18.048 10.087 18.077 10.116 A 0.081 0.081 0 0 1 18.1 10.175 A 0.135 0.135 0 0 0 18.09 10.19 Q 18.043 10.275 18.25 10.275 A 2.989 2.989 0 0 0 18.333 10.253 Q 18.37 10.243 18.403 10.232 A 1.683 1.683 0 0 0 18.425 10.225 Q 18.5 10.2 18.525 10.175 A 0.529 0.529 0 0 1 18.6 10.114 Q 18.701 10.045 18.875 9.975 L 18.913 9.938 L 18.95 9.9 L 19.025 9.825 L 19.35 9.825 A 0.116 0.116 0 0 0 19.385 9.849 Q 19.416 9.863 19.454 9.856 A 0.174 0.174 0 0 0 19.475 9.85 Q 19.55 9.825 19.6 9.875 Q 19.617 9.892 19.634 9.92 A 0.456 0.456 0 0 1 19.65 9.95 A 0.695 0.695 0 0 1 19.669 9.991 Q 19.684 10.028 19.7 10.075 Q 19.7 10.175 19.734 10.242 A 0.222 0.222 0 0 0 19.775 10.3 A 1.663 1.663 0 0 1 19.734 10.439 Q 19.697 10.547 19.65 10.625 Q 19.553 10.77 19.504 10.821 A 0.307 0.307 0 0 1 19.5 10.825 L 19.35 11.025 A 0.338 0.338 0 0 0 19.309 11.076 Q 19.291 11.103 19.275 11.136 A 0.641 0.641 0 0 0 19.263 11.163 Q 19.225 11.25 19.175 11.35 Q 19.156 11.467 19.121 11.493 A 0.034 0.034 0 0 1 19.1 11.5 A 0.078 0.078 0 0 1 19.095 11.5 Q 19.076 11.499 19.088 11.488 A 0.013 0.013 0 0 0 19.089 11.486 A 0.006 0.006 0 0 0 19.09 11.484 A 0.004 0.004 0 0 0 19.09 11.483 A 0.004 0.004 0 0 0 19.088 11.48 Q 19.081 11.476 19.06 11.475 A 0.326 0.326 0 0 0 19.05 11.475 A 0.018 0.018 0 0 0 19.038 11.482 Q 19.017 11.504 18.985 11.596 A 1.811 1.811 0 0 0 18.975 11.625 A 0.955 0.955 0 0 1 18.918 11.788 A 1.088 1.088 0 0 1 18.9 11.825 L 18.8 12.025 A 1.328 1.328 0 0 0 18.69 12.276 A 1.64 1.64 0 0 0 18.65 12.425 A 0.238 0.238 0 0 0 18.626 12.509 A 0.292 0.292 0 0 0 18.625 12.538 A 0.269 0.269 0 0 1 18.617 12.604 A 0.228 0.228 0 0 1 18.6 12.65 A 0.238 0.238 0 0 0 18.576 12.734 A 0.292 0.292 0 0 0 18.575 12.763 A 0.269 0.269 0 0 1 18.567 12.829 A 0.228 0.228 0 0 1 18.55 12.875 A 0.625 0.625 0 0 1 18.443 13.143 A 0.772 0.772 0 0 1 18.4 13.2 A 0.698 0.698 0 0 0 18.292 13.374 A 0.603 0.603 0 0 0 18.25 13.525 L 18.175 14.05 A 0.909 0.909 0 0 0 18.141 14.154 Q 18.127 14.208 18.116 14.271 A 2.053 2.053 0 0 0 18.1 14.375 A 6.048 6.048 0 0 0 18.088 14.423 Q 18.074 14.481 18.065 14.524 A 1.832 1.832 0 0 0 18.062 14.538 A 0.71 0.71 0 0 0 18.054 14.59 Q 18.051 14.617 18.05 14.641 A 0.414 0.414 0 0 0 18.05 14.65 A 0.629 0.629 0 0 0 18.052 14.695 Q 18.056 14.759 18.075 14.788 A 0.502 0.502 0 0 0 18.097 14.818 Q 18.109 14.833 18.121 14.846 A 0.293 0.293 0 0 0 18.125 14.85 L 18.125 15.05 L 18.2 15.35 Q 18.221 15.436 18.243 15.503 A 1.683 1.683 0 0 0 18.25 15.525 L 18.3 15.675 L 18.3 15.875 Q 18.325 15.95 18.4 16.025 L 18.425 16.025 Q 18.475 15.95 18.55 15.9 L 18.65 15.85 A 0.461 0.461 0 0 0 18.679 15.834 Q 18.708 15.817 18.725 15.8 Q 18.87 15.703 18.921 15.654 A 0.307 0.307 0 0 0 18.925 15.65 L 19.15 15.45 A 0.113 0.113 0 0 1 19.165 15.437 Q 19.174 15.431 19.183 15.428 A 0.052 0.052 0 0 1 19.2 15.425 L 19.225 15.425 Q 19.25 15.425 19.3 15.375 A 0.465 0.465 0 0 1 19.322 15.336 Q 19.344 15.302 19.375 15.263 A 1.838 1.838 0 0 0 19.438 15.179 A 2.195 2.195 0 0 0 19.475 15.125 A 1.366 1.366 0 0 1 19.562 15.032 Q 19.662 14.935 19.75 14.9 A 0.113 0.113 0 0 1 19.763 14.915 Q 19.769 14.924 19.772 14.933 A 0.052 0.052 0 0 1 19.775 14.95 A 0.055 0.055 0 0 0 19.781 14.975 Q 19.785 14.983 19.792 14.991 A 0.124 0.124 0 0 0 19.8 15 A 0.338 0.338 0 0 1 19.786 15.098 A 0.288 0.288 0 0 1 19.75 15.175 Q 19.7 15.25 19.675 15.275 Q 19.65 15.35 19.575 15.425 L 19.4 15.625 L 19.2 15.85 A 0.439 0.439 0 0 1 19.18 15.869 Q 19.149 15.896 19.13 15.9 A 0.029 0.029 0 0 1 19.125 15.9 A 0.622 0.622 0 0 0 19.085 15.901 Q 19.02 15.905 19 15.925 L 18.875 16.05 A 0.944 0.944 0 0 0 18.846 16.08 Q 18.832 16.096 18.82 16.11 A 0.383 0.383 0 0 0 18.8 16.138 Q 18.777 16.172 18.754 16.196 A 0.293 0.293 0 0 1 18.75 16.2 A 2.318 2.318 0 0 0 18.645 16.313 A 2.047 2.047 0 0 0 18.612 16.35 A 1.812 1.812 0 0 0 18.526 16.463 A 1.609 1.609 0 0 0 18.5 16.5 Q 18.35 16.65 18.15 16.7 A 0.274 0.274 0 0 1 18.083 16.708 Q 18.033 16.708 17.983 16.69 A 0.347 0.347 0 0 1 17.95 16.675 Z M 42.275 16.675 L 42.125 16.6 A 0.127 0.127 0 0 1 42.084 16.626 Q 42.043 16.644 41.978 16.648 A 0.742 0.742 0 0 1 41.925 16.65 L 41.575 16.3 L 41.575 15.475 Q 41.595 15.455 41.599 15.401 A 0.371 0.371 0 0 0 41.6 15.375 A 0.353 0.353 0 0 1 41.601 15.343 Q 41.606 15.294 41.625 15.275 L 41.675 15.075 L 41.725 14.875 A 0.561 0.561 0 0 1 41.757 14.691 A 0.64 0.64 0 0 1 41.762 14.675 Q 41.8 14.575 41.825 14.475 A 3.669 3.669 0 0 1 41.914 14.219 Q 41.978 14.055 42.05 13.925 Q 42.225 13.675 42.225 13.325 L 42.2 13.325 Q 42.176 13.419 42.064 13.469 A 0.414 0.414 0 0 1 42.05 13.475 Q 41.95 13.55 41.875 13.65 A 1.759 1.759 0 0 1 41.854 13.69 Q 41.825 13.744 41.807 13.767 A 0.103 0.103 0 0 1 41.8 13.775 Q 41.8 13.825 41.75 13.925 L 41.45 14.375 A 4.556 4.556 0 0 0 41.337 14.532 A 5.123 5.123 0 0 0 41.3 14.587 Q 41.225 14.7 41.125 14.8 A 0.674 0.674 0 0 0 41.078 14.852 Q 41.055 14.881 41.032 14.915 A 1.144 1.144 0 0 0 41.025 14.925 A 0.893 0.893 0 0 1 40.961 15.009 A 1.141 1.141 0 0 1 40.9 15.075 L 40.625 15.35 A 0.337 0.337 0 0 1 40.599 15.373 Q 40.585 15.385 40.568 15.396 A 0.57 0.57 0 0 1 40.563 15.4 Q 40.537 15.417 40.506 15.445 A 0.935 0.935 0 0 0 40.475 15.475 Q 40.441 15.525 40.385 15.587 A 1.87 1.87 0 0 1 40.325 15.65 A 1.887 1.887 0 0 0 40.267 15.71 Q 40.209 15.773 40.175 15.825 A 0.337 0.337 0 0 1 40.149 15.848 Q 40.135 15.86 40.118 15.871 A 0.57 0.57 0 0 1 40.113 15.875 Q 40.087 15.892 40.056 15.92 A 0.935 0.935 0 0 0 40.025 15.95 L 39.875 16.15 Q 39.773 16.252 39.704 16.304 A 0.598 0.598 0 0 1 39.675 16.325 A 2.417 2.417 0 0 0 39.475 16.437 A 1.314 1.314 0 0 1 39.34 16.511 A 1.606 1.606 0 0 1 39.25 16.55 A 1.074 1.074 0 0 1 39.124 16.584 Q 39.045 16.6 38.975 16.6 A 0.784 0.784 0 0 1 38.896 16.596 A 0.614 0.614 0 0 1 38.838 16.587 Q 38.775 16.575 38.701 16.55 A 1.505 1.505 0 0 1 38.7 16.55 Q 38.6 16.525 38.55 16.425 Q 38.453 16.328 38.403 16.301 A 0.148 0.148 0 0 0 38.4 16.3 L 38.25 16.2 L 38.175 15.925 Q 38.175 15.85 38.163 15.775 Q 38.15 15.7 38.125 15.625 A 3.7 3.7 0 0 1 38.069 15.225 Q 38.05 15.013 38.05 14.775 A 4.398 4.398 0 0 1 38.058 14.506 A 3.48 3.48 0 0 1 38.075 14.313 A 2.736 2.736 0 0 1 38.111 14.085 A 2.145 2.145 0 0 1 38.15 13.925 A 0.695 0.695 0 0 0 38.169 13.884 Q 38.184 13.847 38.2 13.8 A 1.913 1.913 0 0 0 38.222 13.73 Q 38.232 13.693 38.243 13.653 A 3.333 3.333 0 0 0 38.25 13.625 A 0.709 0.709 0 0 1 38.262 13.491 A 0.62 0.62 0 0 1 38.275 13.438 A 1.327 1.327 0 0 1 38.291 13.386 Q 38.307 13.338 38.323 13.305 A 0.387 0.387 0 0 1 38.325 13.3 A 1.71 1.71 0 0 1 38.423 13.097 A 1.934 1.934 0 0 1 38.45 13.05 A 0.674 0.674 0 0 0 38.497 12.998 Q 38.52 12.969 38.543 12.935 A 1.144 1.144 0 0 0 38.55 12.925 Q 38.599 12.852 38.624 12.802 A 0.603 0.603 0 0 0 38.625 12.8 L 38.975 12.275 L 39.35 11.75 A 1.521 1.521 0 0 1 39.398 11.681 Q 39.451 11.612 39.495 11.573 A 0.298 0.298 0 0 1 39.525 11.55 L 39.625 11.45 L 39.725 11.35 A 4.315 4.315 0 0 1 40.004 11.006 A 5.283 5.283 0 0 1 40.2 10.8 A 2.033 2.033 0 0 1 40.444 10.572 Q 40.594 10.454 40.751 10.385 A 1.244 1.244 0 0 1 40.775 10.375 A 0.084 0.084 0 0 1 40.835 10.35 A 0.111 0.111 0 0 1 40.837 10.35 A 0.092 0.092 0 0 0 40.87 10.344 A 0.083 0.083 0 0 0 40.9 10.325 A 0.622 0.622 0 0 0 40.94 10.324 Q 41.005 10.32 41.025 10.3 A 0.488 0.488 0 0 1 41.06 10.284 Q 41.102 10.267 41.163 10.25 Q 41.25 10.225 41.35 10.2 A 2.088 2.088 0 0 1 41.444 10.167 Q 41.536 10.138 41.6 10.129 A 0.369 0.369 0 0 1 41.65 10.125 L 42.25 10.075 A 0.458 0.458 0 0 1 42.309 10.079 Q 42.373 10.087 42.402 10.116 A 0.081 0.081 0 0 1 42.425 10.175 A 0.135 0.135 0 0 0 42.415 10.19 Q 42.368 10.275 42.575 10.275 A 2.989 2.989 0 0 0 42.658 10.253 Q 42.695 10.243 42.728 10.232 A 1.683 1.683 0 0 0 42.75 10.225 Q 42.825 10.2 42.85 10.175 A 0.529 0.529 0 0 1 42.925 10.114 Q 43.026 10.045 43.2 9.975 L 43.238 9.938 L 43.275 9.9 L 43.35 9.825 L 43.675 9.825 A 0.116 0.116 0 0 0 43.71 9.849 Q 43.741 9.863 43.779 9.856 A 0.174 0.174 0 0 0 43.8 9.85 Q 43.875 9.825 43.925 9.875 Q 43.942 9.892 43.959 9.92 A 0.456 0.456 0 0 1 43.975 9.95 A 0.695 0.695 0 0 1 43.994 9.991 Q 44.009 10.028 44.025 10.075 Q 44.025 10.175 44.059 10.242 A 0.222 0.222 0 0 0 44.1 10.3 A 1.663 1.663 0 0 1 44.059 10.439 Q 44.022 10.547 43.975 10.625 Q 43.878 10.77 43.829 10.821 A 0.307 0.307 0 0 1 43.825 10.825 L 43.675 11.025 A 0.338 0.338 0 0 0 43.634 11.076 Q 43.616 11.103 43.6 11.136 A 0.641 0.641 0 0 0 43.588 11.163 Q 43.55 11.25 43.5 11.35 Q 43.481 11.467 43.446 11.493 A 0.034 0.034 0 0 1 43.425 11.5 A 0.078 0.078 0 0 1 43.42 11.5 Q 43.401 11.499 43.413 11.488 A 0.013 0.013 0 0 0 43.414 11.486 A 0.006 0.006 0 0 0 43.415 11.484 A 0.004 0.004 0 0 0 43.415 11.483 A 0.004 0.004 0 0 0 43.413 11.48 Q 43.406 11.476 43.385 11.475 A 0.326 0.326 0 0 0 43.375 11.475 A 0.018 0.018 0 0 0 43.363 11.482 Q 43.342 11.504 43.31 11.596 A 1.811 1.811 0 0 0 43.3 11.625 A 0.955 0.955 0 0 1 43.243 11.788 A 1.088 1.088 0 0 1 43.225 11.825 L 43.125 12.025 A 1.328 1.328 0 0 0 43.015 12.276 A 1.64 1.64 0 0 0 42.975 12.425 A 0.238 0.238 0 0 0 42.951 12.509 A 0.292 0.292 0 0 0 42.95 12.538 A 0.269 0.269 0 0 1 42.942 12.604 A 0.228 0.228 0 0 1 42.925 12.65 A 0.238 0.238 0 0 0 42.901 12.734 A 0.292 0.292 0 0 0 42.9 12.763 A 0.269 0.269 0 0 1 42.892 12.829 A 0.228 0.228 0 0 1 42.875 12.875 A 0.625 0.625 0 0 1 42.768 13.143 A 0.772 0.772 0 0 1 42.725 13.2 A 0.698 0.698 0 0 0 42.617 13.374 A 0.603 0.603 0 0 0 42.575 13.525 L 42.5 14.05 A 0.909 0.909 0 0 0 42.466 14.154 Q 42.452 14.208 42.441 14.271 A 2.053 2.053 0 0 0 42.425 14.375 A 6.048 6.048 0 0 0 42.413 14.423 Q 42.399 14.481 42.39 14.524 A 1.832 1.832 0 0 0 42.387 14.538 A 0.71 0.71 0 0 0 42.379 14.59 Q 42.376 14.617 42.375 14.641 A 0.414 0.414 0 0 0 42.375 14.65 A 0.629 0.629 0 0 0 42.377 14.695 Q 42.381 14.759 42.4 14.788 A 0.502 0.502 0 0 0 42.422 14.818 Q 42.434 14.833 42.446 14.846 A 0.293 0.293 0 0 0 42.45 14.85 L 42.45 15.05 L 42.525 15.35 Q 42.546 15.436 42.568 15.503 A 1.683 1.683 0 0 0 42.575 15.525 L 42.625 15.675 L 42.625 15.875 Q 42.65 15.95 42.725 16.025 L 42.75 16.025 Q 42.8 15.95 42.875 15.9 L 42.975 15.85 A 0.461 0.461 0 0 0 43.004 15.834 Q 43.033 15.817 43.05 15.8 Q 43.195 15.703 43.246 15.654 A 0.307 0.307 0 0 0 43.25 15.65 L 43.475 15.45 A 0.113 0.113 0 0 1 43.49 15.437 Q 43.499 15.431 43.508 15.428 A 0.052 0.052 0 0 1 43.525 15.425 L 43.55 15.425 Q 43.575 15.425 43.625 15.375 A 0.465 0.465 0 0 1 43.647 15.336 Q 43.669 15.302 43.7 15.263 A 1.838 1.838 0 0 0 43.763 15.179 A 2.195 2.195 0 0 0 43.8 15.125 A 1.366 1.366 0 0 1 43.887 15.032 Q 43.987 14.935 44.075 14.9 A 0.113 0.113 0 0 1 44.088 14.915 Q 44.094 14.924 44.097 14.933 A 0.052 0.052 0 0 1 44.1 14.95 A 0.055 0.055 0 0 0 44.106 14.975 Q 44.11 14.983 44.117 14.991 A 0.124 0.124 0 0 0 44.125 15 A 0.338 0.338 0 0 1 44.111 15.098 A 0.288 0.288 0 0 1 44.075 15.175 Q 44.025 15.25 44 15.275 Q 43.975 15.35 43.9 15.425 L 43.725 15.625 L 43.525 15.85 A 0.439 0.439 0 0 1 43.505 15.869 Q 43.474 15.896 43.455 15.9 A 0.029 0.029 0 0 1 43.45 15.9 A 0.622 0.622 0 0 0 43.41 15.901 Q 43.345 15.905 43.325 15.925 L 43.2 16.05 A 0.944 0.944 0 0 0 43.171 16.08 Q 43.157 16.096 43.145 16.11 A 0.383 0.383 0 0 0 43.125 16.138 Q 43.102 16.172 43.079 16.196 A 0.293 0.293 0 0 1 43.075 16.2 A 2.318 2.318 0 0 0 42.97 16.313 A 2.047 2.047 0 0 0 42.937 16.35 A 1.812 1.812 0 0 0 42.851 16.463 A 1.609 1.609 0 0 0 42.825 16.5 Q 42.675 16.65 42.475 16.7 A 0.274 0.274 0 0 1 42.408 16.708 Q 42.358 16.708 42.308 16.69 A 0.347 0.347 0 0 1 42.275 16.675 Z M 27.825 15.55 L 27.875 15.5 Q 27.905 15.5 27.917 15.491 A 0.019 0.019 0 0 0 27.925 15.475 L 27.925 15.2 A 0.607 0.607 0 0 0 27.953 15.136 Q 27.975 15.075 27.975 15.025 A 0.225 0.225 0 0 0 28.001 14.995 Q 28.013 14.976 28.02 14.958 A 0.105 0.105 0 0 0 28.025 14.925 Q 28.025 14.875 28.05 14.85 Q 28.075 14.8 28.1 14.738 Q 28.125 14.675 28.15 14.625 L 28.225 14.375 L 28.225 14.2 A 1.539 1.539 0 0 1 28.292 13.993 Q 28.356 13.834 28.45 13.725 Q 28.6 13.5 28.675 13.25 L 28.675 13.075 A 0.402 0.402 0 0 1 28.692 13.033 Q 28.725 12.963 28.8 12.85 A 0.949 0.949 0 0 0 28.862 12.782 Q 28.924 12.706 28.945 12.641 A 0.248 0.248 0 0 0 28.95 12.625 L 28.95 12.275 A 0.225 0.225 0 0 0 28.976 12.245 Q 28.988 12.226 28.995 12.208 A 0.105 0.105 0 0 0 29 12.175 A 0.215 0.215 0 0 0 29.019 12.164 Q 29.05 12.145 29.05 12.125 Q 29.05 12.104 29.067 12.084 A 0.124 0.124 0 0 1 29.075 12.075 A 2.06 2.06 0 0 0 29.099 11.966 A 1.634 1.634 0 0 0 29.112 11.888 A 0.422 0.422 0 0 0 29.117 11.828 Q 29.117 11.786 29.109 11.741 A 0.598 0.598 0 0 0 29.1 11.7 L 29.1 11.3 L 28.95 11.2 Q 28.95 11.18 28.966 11.176 A 0.037 0.037 0 0 1 28.975 11.175 L 28.975 11.15 A 0.251 0.251 0 0 0 29.045 11.013 A 0.358 0.358 0 0 0 29.05 10.95 L 29.05 10.675 L 28.925 10.625 L 28.825 10.575 A 0.301 0.301 0 0 1 28.734 10.637 A 0.37 0.37 0 0 1 28.7 10.65 L 28.6 10.7 A 0.241 0.241 0 0 1 28.544 10.72 A 0.204 0.204 0 0 1 28.5 10.725 A 0.417 0.417 0 0 1 28.429 10.752 A 0.511 0.511 0 0 1 28.388 10.763 A 0.484 0.484 0 0 0 28.318 10.782 A 0.398 0.398 0 0 0 28.275 10.8 A 0.622 0.622 0 0 1 28.235 10.799 Q 28.17 10.795 28.15 10.775 Q 28.13 10.755 28.126 10.701 A 0.371 0.371 0 0 1 28.125 10.675 A 0.017 0.017 0 0 0 28.139 10.666 Q 28.148 10.652 28.15 10.616 A 0.378 0.378 0 0 0 28.15 10.6 A 0.497 0.497 0 0 0 28.262 10.556 A 0.671 0.671 0 0 0 28.35 10.5 A 0.213 0.213 0 0 0 28.427 10.485 A 0.261 0.261 0 0 0 28.45 10.475 A 0.461 0.461 0 0 0 28.479 10.459 Q 28.508 10.442 28.525 10.425 Q 28.575 10.375 28.638 10.35 Q 28.689 10.329 28.715 10.309 A 0.115 0.115 0 0 0 28.725 10.3 A 1.887 1.887 0 0 1 28.785 10.242 Q 28.848 10.184 28.9 10.15 L 28.938 10.075 L 28.95 10.05 A 0.192 0.192 0 0 1 28.973 10.037 Q 29.033 10.008 29.075 10.05 A 0.353 0.353 0 0 0 29.107 10.049 Q 29.156 10.044 29.175 10.025 L 29.325 9.925 L 29.55 9.85 Q 29.6 9.85 29.638 9.838 Q 29.662 9.829 29.681 9.827 A 0.13 0.13 0 0 1 29.7 9.825 A 0.518 0.518 0 0 1 29.739 9.827 Q 29.758 9.828 29.78 9.831 A 1.182 1.182 0 0 1 29.825 9.837 A 1.703 1.703 0 0 1 29.885 9.849 Q 29.938 9.859 30 9.875 A 1.36 1.36 0 0 1 30.119 9.91 Q 30.311 9.977 30.35 10.075 L 30.35 10.575 A 0.451 0.451 0 0 0 30.298 10.636 Q 30.25 10.705 30.25 10.775 L 30.25 10.925 A 0.098 0.098 0 0 0 30.238 10.941 Q 30.22 10.968 30.193 11.032 A 2.082 2.082 0 0 0 30.175 11.075 Q 30.15 11.175 30.075 11.25 Q 29.975 11.375 29.9 11.525 A 4.444 4.444 0 0 1 29.809 11.699 A 3.598 3.598 0 0 1 29.75 11.8 Q 29.65 11.925 29.575 12.075 A 4.334 4.334 0 0 0 29.508 12.214 Q 29.476 12.286 29.45 12.35 L 29.35 12.55 Q 29.3 12.65 29.275 12.775 L 29.125 13.2 A 0.695 0.695 0 0 0 29.106 13.241 Q 29.091 13.278 29.075 13.325 A 0.472 0.472 0 0 0 29.05 13.473 A 0.458 0.458 0 0 0 29.05 13.475 Q 29.025 13.55 29.013 13.625 Q 29 13.7 28.975 13.775 Q 29.008 13.792 29.025 13.814 A 0.083 0.083 0 0 1 29.038 13.838 A 0.17 0.17 0 0 0 29.056 13.876 A 0.144 0.144 0 0 0 29.075 13.9 L 28.975 14.1 L 28.975 14.525 L 28.925 14.625 Q 28.905 14.625 28.901 14.641 A 0.037 0.037 0 0 0 28.9 14.65 A 0.055 0.055 0 0 1 28.894 14.675 Q 28.89 14.683 28.883 14.691 A 0.124 0.124 0 0 1 28.875 14.7 L 28.875 15.325 A 0.996 0.996 0 0 1 28.9 15.351 Q 28.936 15.39 28.946 15.411 A 0.034 0.034 0 0 1 28.95 15.425 Q 28.983 15.492 28.983 15.547 A 0.166 0.166 0 0 1 28.975 15.6 L 28.975 15.825 L 29.05 15.9 L 29.125 15.95 Q 29.164 15.911 29.232 15.888 A 0.508 0.508 0 0 1 29.275 15.875 Q 29.356 15.875 29.417 15.864 A 0.41 0.41 0 0 0 29.475 15.85 A 0.353 0.353 0 0 1 29.476 15.818 Q 29.481 15.769 29.5 15.75 L 29.65 15.75 L 29.9 15.55 Q 30.061 15.409 30.109 15.382 A 0.046 0.046 0 0 1 30.124 15.375 L 30.15 15.4 A 0.131 0.131 0 0 1 30.164 15.459 Q 30.164 15.532 30.084 15.616 A 0.565 0.565 0 0 1 30.075 15.625 A 0.821 0.821 0 0 1 29.924 15.808 A 0.967 0.967 0 0 1 29.875 15.85 L 29.625 16.075 A 1.719 1.719 0 0 0 29.503 16.165 A 1.941 1.941 0 0 0 29.475 16.187 A 1.89 1.89 0 0 0 29.415 16.24 Q 29.389 16.264 29.36 16.291 A 3.892 3.892 0 0 0 29.3 16.35 Q 29.125 16.525 28.925 16.65 A 1.328 1.328 0 0 1 28.674 16.76 A 1.64 1.64 0 0 1 28.525 16.8 A 0.399 0.399 0 0 1 28.397 16.777 Q 28.286 16.739 28.151 16.64 A 1.712 1.712 0 0 1 28.1 16.6 L 28.05 16.55 L 28 16.5 A 0.033 0.033 0 0 1 27.987 16.496 Q 27.959 16.484 27.902 16.427 A 1.318 1.318 0 0 1 27.9 16.425 L 27.85 16.275 L 27.85 16.15 A 0.373 0.373 0 0 0 27.846 16.097 Q 27.841 16.056 27.825 16.025 A 0.472 0.472 0 0 1 27.8 15.877 A 0.458 0.458 0 0 1 27.8 15.875 L 27.8 15.75 Q 27.8 15.58 27.824 15.551 A 0.022 0.022 0 0 1 27.825 15.55 Z M 15.375 15.85 L 15.55 15.65 L 15.65 15.55 L 15.75 15.45 Q 15.925 15.3 16.075 15.125 Q 16.175 15.025 16.25 14.938 Q 16.325 14.85 16.425 14.8 Q 16.447 14.778 16.525 14.738 A 1.941 1.941 0 0 1 16.55 14.725 A 0.263 0.263 0 0 0 16.582 14.706 Q 16.613 14.684 16.652 14.647 A 1.13 1.13 0 0 0 16.675 14.625 L 16.775 14.45 A 0.213 0.213 0 0 1 16.79 14.373 A 0.261 0.261 0 0 1 16.8 14.35 A 0.461 0.461 0 0 1 16.816 14.321 Q 16.833 14.292 16.85 14.275 A 0.228 0.228 0 0 1 16.867 14.247 Q 16.899 14.202 16.968 14.132 A 2.199 2.199 0 0 1 16.975 14.125 A 0.91 0.91 0 0 0 17.025 14.071 Q 17.073 14.014 17.093 13.967 A 0.219 0.219 0 0 0 17.1 13.95 A 0.113 0.113 0 0 0 17.113 13.935 Q 17.119 13.926 17.122 13.917 A 0.052 0.052 0 0 0 17.125 13.9 A 0.055 0.055 0 0 1 17.131 13.875 Q 17.135 13.867 17.142 13.859 A 0.124 0.124 0 0 1 17.15 13.85 A 0.442 0.442 0 0 0 17.161 13.827 Q 17.171 13.804 17.174 13.788 A 0.07 0.07 0 0 0 17.175 13.775 Q 17.175 13.754 17.192 13.734 A 0.124 0.124 0 0 1 17.2 13.725 A 0.263 0.263 0 0 1 17.219 13.693 Q 17.241 13.662 17.278 13.623 A 1.13 1.13 0 0 1 17.3 13.6 Q 17.397 13.503 17.424 13.453 A 0.148 0.148 0 0 0 17.425 13.45 Q 17.45 13.35 17.475 13.263 Q 17.5 13.175 17.525 13.1 A 0.709 0.709 0 0 1 17.537 12.966 A 0.62 0.62 0 0 1 17.55 12.913 Q 17.575 12.825 17.6 12.725 A 0.429 0.429 0 0 0 17.655 12.657 A 0.558 0.558 0 0 0 17.687 12.6 A 1.152 1.152 0 0 0 17.747 12.459 A 1.06 1.06 0 0 0 17.75 12.45 A 1.989 1.989 0 0 0 17.812 12.343 Q 17.882 12.215 17.9 12.125 L 17.9 12 L 17.95 11.9 Q 17.97 11.9 17.974 11.884 A 0.037 0.037 0 0 0 17.975 11.875 A 0.055 0.055 0 0 1 17.981 11.85 Q 17.985 11.842 17.992 11.834 A 0.124 0.124 0 0 1 18 11.825 L 18 10.775 A 0.113 0.113 0 0 1 17.987 10.76 Q 17.981 10.751 17.978 10.742 A 0.052 0.052 0 0 1 17.975 10.725 A 0.055 0.055 0 0 0 17.969 10.7 Q 17.965 10.692 17.958 10.684 A 0.124 0.124 0 0 0 17.95 10.675 A 0.113 0.113 0 0 1 17.937 10.66 Q 17.931 10.651 17.928 10.642 A 0.052 0.052 0 0 1 17.925 10.625 A 0.055 0.055 0 0 0 17.919 10.6 Q 17.915 10.592 17.908 10.584 A 0.124 0.124 0 0 0 17.9 10.575 A 1.759 1.759 0 0 0 17.879 10.535 Q 17.85 10.481 17.832 10.458 A 0.103 0.103 0 0 0 17.825 10.45 A 0.061 0.061 0 0 0 17.802 10.403 Q 17.792 10.394 17.777 10.386 A 0.206 0.206 0 0 0 17.75 10.375 Q 17.701 10.326 17.605 10.349 A 0.34 0.34 0 0 0 17.6 10.35 L 17.4 10.35 Q 17.378 10.372 17.3 10.412 A 1.941 1.941 0 0 1 17.275 10.425 A 0.304 0.304 0 0 1 17.243 10.439 Q 17.227 10.445 17.212 10.448 A 0.133 0.133 0 0 1 17.188 10.45 Q 17.15 10.45 17.1 10.475 L 16.75 10.675 A 3.444 3.444 0 0 1 16.422 10.841 A 3.175 3.175 0 0 1 16.4 10.85 L 16.05 11 L 16 11.05 Q 15.983 11.067 15.966 11.095 A 0.456 0.456 0 0 0 15.95 11.125 A 2.217 2.217 0 0 0 15.799 11.291 A 1.735 1.735 0 0 0 15.7 11.425 L 15.5 11.75 Q 15.325 12.075 15.188 12.425 Q 15.05 12.775 14.925 13.125 L 14.925 13.925 A 0.084 0.084 0 0 0 14.9 13.985 A 0.111 0.111 0 0 0 14.9 13.988 Q 14.9 14.025 14.875 14.075 A 0.304 0.304 0 0 0 14.861 14.107 Q 14.855 14.123 14.852 14.138 A 0.133 0.133 0 0 0 14.85 14.163 Q 14.85 14.2 14.825 14.25 L 14.825 14.338 Q 14.825 14.4 14.8 14.5 A 1.148 1.148 0 0 0 14.787 14.559 Q 14.776 14.616 14.775 14.657 A 0.326 0.326 0 0 0 14.775 14.663 L 14.775 14.75 A 1.433 1.433 0 0 0 14.776 14.811 Q 14.78 14.902 14.797 14.943 A 0.107 0.107 0 0 0 14.8 14.95 A 0.342 0.342 0 0 1 14.812 14.997 Q 14.821 15.048 14.824 15.123 A 1.987 1.987 0 0 1 14.825 15.2 L 14.9 15.4 A 0.367 0.367 0 0 1 14.966 15.553 A 0.51 0.51 0 0 1 14.975 15.65 L 15.075 15.7 A 0.461 0.461 0 0 1 15.104 15.716 Q 15.133 15.733 15.15 15.75 A 0.179 0.179 0 0 0 15.183 15.775 Q 15.238 15.809 15.35 15.843 A 1.794 1.794 0 0 0 15.375 15.85 Z M 39.7 15.85 L 39.875 15.65 L 39.975 15.55 L 40.075 15.45 Q 40.25 15.3 40.4 15.125 Q 40.5 15.025 40.575 14.938 Q 40.65 14.85 40.75 14.8 Q 40.772 14.778 40.85 14.738 A 1.941 1.941 0 0 1 40.875 14.725 A 0.263 0.263 0 0 0 40.907 14.706 Q 40.938 14.684 40.977 14.647 A 1.13 1.13 0 0 0 41 14.625 L 41.1 14.45 A 0.213 0.213 0 0 1 41.115 14.373 A 0.261 0.261 0 0 1 41.125 14.35 A 0.461 0.461 0 0 1 41.141 14.321 Q 41.158 14.292 41.175 14.275 A 0.228 0.228 0 0 1 41.192 14.247 Q 41.224 14.202 41.293 14.132 A 2.199 2.199 0 0 1 41.3 14.125 A 0.91 0.91 0 0 0 41.35 14.071 Q 41.398 14.014 41.418 13.967 A 0.219 0.219 0 0 0 41.425 13.95 A 0.113 0.113 0 0 0 41.438 13.935 Q 41.444 13.926 41.447 13.917 A 0.052 0.052 0 0 0 41.45 13.9 A 0.055 0.055 0 0 1 41.456 13.875 Q 41.46 13.867 41.467 13.859 A 0.124 0.124 0 0 1 41.475 13.85 A 0.442 0.442 0 0 0 41.486 13.827 Q 41.496 13.804 41.499 13.788 A 0.07 0.07 0 0 0 41.5 13.775 Q 41.5 13.754 41.517 13.734 A 0.124 0.124 0 0 1 41.525 13.725 A 0.263 0.263 0 0 1 41.544 13.693 Q 41.566 13.662 41.603 13.623 A 1.13 1.13 0 0 1 41.625 13.6 Q 41.722 13.503 41.749 13.453 A 0.148 0.148 0 0 0 41.75 13.45 Q 41.775 13.35 41.8 13.263 Q 41.825 13.175 41.85 13.1 A 0.709 0.709 0 0 1 41.862 12.966 A 0.62 0.62 0 0 1 41.875 12.913 Q 41.9 12.825 41.925 12.725 A 0.429 0.429 0 0 0 41.98 12.657 A 0.558 0.558 0 0 0 42.012 12.6 A 1.152 1.152 0 0 0 42.072 12.459 A 1.06 1.06 0 0 0 42.075 12.45 A 1.989 1.989 0 0 0 42.137 12.343 Q 42.207 12.215 42.225 12.125 L 42.225 12 L 42.275 11.9 Q 42.295 11.9 42.299 11.884 A 0.037 0.037 0 0 0 42.3 11.875 A 0.055 0.055 0 0 1 42.306 11.85 Q 42.31 11.842 42.317 11.834 A 0.124 0.124 0 0 1 42.325 11.825 L 42.325 10.775 A 0.113 0.113 0 0 1 42.312 10.76 Q 42.306 10.751 42.303 10.742 A 0.052 0.052 0 0 1 42.3 10.725 A 0.055 0.055 0 0 0 42.294 10.7 Q 42.29 10.692 42.283 10.684 A 0.124 0.124 0 0 0 42.275 10.675 A 0.113 0.113 0 0 1 42.262 10.66 Q 42.256 10.651 42.253 10.642 A 0.052 0.052 0 0 1 42.25 10.625 A 0.055 0.055 0 0 0 42.244 10.6 Q 42.24 10.592 42.233 10.584 A 0.124 0.124 0 0 0 42.225 10.575 A 1.759 1.759 0 0 0 42.204 10.535 Q 42.175 10.481 42.157 10.458 A 0.103 0.103 0 0 0 42.15 10.45 A 0.061 0.061 0 0 0 42.127 10.403 Q 42.117 10.394 42.102 10.386 A 0.206 0.206 0 0 0 42.075 10.375 Q 42.026 10.326 41.93 10.349 A 0.34 0.34 0 0 0 41.925 10.35 L 41.725 10.35 Q 41.703 10.372 41.625 10.412 A 1.941 1.941 0 0 1 41.6 10.425 A 0.304 0.304 0 0 1 41.568 10.439 Q 41.552 10.445 41.537 10.448 A 0.133 0.133 0 0 1 41.513 10.45 Q 41.475 10.45 41.425 10.475 L 41.075 10.675 A 3.444 3.444 0 0 1 40.747 10.841 A 3.175 3.175 0 0 1 40.725 10.85 L 40.375 11 L 40.325 11.05 Q 40.308 11.067 40.291 11.095 A 0.456 0.456 0 0 0 40.275 11.125 A 2.217 2.217 0 0 0 40.124 11.291 A 1.735 1.735 0 0 0 40.025 11.425 L 39.825 11.75 Q 39.65 12.075 39.513 12.425 Q 39.375 12.775 39.25 13.125 L 39.25 13.925 A 0.084 0.084 0 0 0 39.225 13.985 A 0.111 0.111 0 0 0 39.225 13.988 Q 39.225 14.025 39.2 14.075 A 0.304 0.304 0 0 0 39.186 14.107 Q 39.18 14.123 39.177 14.138 A 0.133 0.133 0 0 0 39.175 14.163 Q 39.175 14.2 39.15 14.25 L 39.15 14.338 Q 39.15 14.4 39.125 14.5 A 1.148 1.148 0 0 0 39.112 14.559 Q 39.101 14.616 39.1 14.657 A 0.326 0.326 0 0 0 39.1 14.663 L 39.1 14.75 A 1.433 1.433 0 0 0 39.101 14.811 Q 39.105 14.902 39.122 14.943 A 0.107 0.107 0 0 0 39.125 14.95 A 0.342 0.342 0 0 1 39.137 14.997 Q 39.146 15.048 39.149 15.123 A 1.987 1.987 0 0 1 39.15 15.2 L 39.225 15.4 A 0.367 0.367 0 0 1 39.291 15.553 A 0.51 0.51 0 0 1 39.3 15.65 L 39.4 15.7 A 0.461 0.461 0 0 1 39.429 15.716 Q 39.458 15.733 39.475 15.75 A 0.179 0.179 0 0 0 39.508 15.775 Q 39.563 15.809 39.675 15.843 A 1.794 1.794 0 0 0 39.7 15.85 Z M 34.4 11.375 L 34.025 11.675 Q 33.925 11.75 33.838 11.838 L 33.65 12.025 L 33.55 12.125 Q 33.475 12.175 33.425 12.25 Q 33.675 12.3 33.825 12.35 A 2.105 2.105 0 0 0 33.987 12.414 Q 34.067 12.443 34.14 12.459 A 1.049 1.049 0 0 0 34.225 12.475 Q 34.3 12.5 34.45 12.5 A 0.518 0.518 0 0 0 34.489 12.498 Q 34.508 12.497 34.53 12.494 A 1.182 1.182 0 0 0 34.575 12.488 Q 34.65 12.475 34.7 12.45 Q 34.853 12.373 34.977 12.326 A 1.815 1.815 0 0 1 35.05 12.3 Q 35.5 12.1 35.825 11.7 Q 36.175 11.275 36.175 10.7 A 2.942 2.942 0 0 0 35.704 10.632 A 3.526 3.526 0 0 0 35.475 10.625 A 0.478 0.478 0 0 1 35.363 10.709 A 0.407 0.407 0 0 1 35.25 10.75 A 0.596 0.596 0 0 1 35.022 10.865 A 0.583 0.583 0 0 1 34.975 10.875 A 0.59 0.59 0 0 0 34.877 10.919 A 0.723 0.723 0 0 0 34.825 10.95 Q 34.757 10.996 34.709 11.041 A 0.584 0.584 0 0 0 34.7 11.05 Q 34.633 11.072 34.566 11.175 A 0.753 0.753 0 0 0 34.55 11.2 Q 34.516 11.25 34.46 11.312 A 1.87 1.87 0 0 1 34.4 11.375 Z M 30.375 6.9 L 30.175 6.9 A 2.499 2.499 0 0 1 30.123 6.882 Q 30.02 6.845 30 6.825 A 0.228 0.228 0 0 0 29.983 6.797 Q 29.951 6.752 29.882 6.682 A 2.199 2.199 0 0 0 29.875 6.675 L 29.875 6.65 A 0.398 0.398 0 0 0 29.924 6.627 Q 29.976 6.597 29.992 6.56 A 0.086 0.086 0 0 0 30 6.525 Q 30.038 6.487 30.055 6.448 A 0.157 0.157 0 0 0 30.063 6.425 A 0.477 0.477 0 0 1 30.091 6.344 A 0.544 0.544 0 0 1 30.1 6.325 A 0.239 0.239 0 0 1 30.105 6.279 Q 30.111 6.248 30.125 6.213 Q 30.146 6.161 30.166 6.135 A 0.115 0.115 0 0 1 30.175 6.125 Q 30.247 6.028 30.367 6.025 A 0.306 0.306 0 0 1 30.375 6.025 A 0.22 0.22 0 0 1 30.385 6.015 Q 30.401 6.002 30.41 6 A 0.015 0.015 0 0 1 30.413 6 L 30.425 6 Q 30.475 6 30.5 5.975 A 1.423 1.423 0 0 1 30.62 5.98 A 1.183 1.183 0 0 1 30.688 5.988 Q 30.775 6 30.875 6.025 Q 30.924 6.098 30.949 6.148 A 0.603 0.603 0 0 1 30.95 6.15 L 31 6.25 Q 31.039 6.367 31.048 6.439 A 0.309 0.309 0 0 1 31.05 6.475 L 31.025 6.475 L 31.025 6.725 A 1.022 1.022 0 0 1 30.985 6.763 Q 30.936 6.807 30.9 6.825 Q 30.803 6.922 30.776 6.972 A 0.148 0.148 0 0 0 30.775 6.975 A 0.353 0.353 0 0 1 30.743 6.974 Q 30.694 6.969 30.675 6.95 A 0.078 0.078 0 0 0 30.644 6.931 Q 30.631 6.927 30.616 6.926 A 0.176 0.176 0 0 0 30.6 6.925 A 1.446 1.446 0 0 1 30.522 6.923 Q 30.429 6.918 30.375 6.9 Z M 25.251 16.587 Q 25.251 16.588 25.25 16.588 M 49.576 16.587 Q 49.576 16.588 49.575 16.588 M 54.451 10.262 Q 54.451 10.263 54.45 10.263" vector-effect="non-scaling-stroke"/></g></svg>